<svg width="2388" height="2388" xmlns="http://www.w3.org/2000/svg" xmlns:xlink="http://www.w3.org/1999/xlink" xml:space="preserve" overflow="hidden"><g transform="translate(-962 -36)"><g><rect x="963" y="37.0001" width="2384" height="2384" fill="#FFFFFF" fill-opacity="1"/><g><g><g><path d="M1794.81 0C1845.65-2.04374e-14 1886.85 41.2085 1886.85 92.0417L1886.85 2116.96C1886.85 2167.79 1845.65 2209 1794.81 2209L368.167 2209C317.333 2209 276.125 2167.79 276.125 2116.96L276.125 92.0417C276.125 41.2085 317.333-1.02187e-14 368.167-1.02187e-14Z" fill="#D0D7DF" fill-rule="nonzero" fill-opacity="1" transform="matrix(1 0 0 1 1051 125)"/><path d="M598.271 1794.81C623.687 1794.81 644.292 1815.42 644.292 1840.83L644.292 1978.9C644.292 2004.31 623.687 2024.92 598.271 2024.92L460.208 2024.92C434.792 2024.92 414.188 2004.31 414.188 1978.9L414.188 1840.83C414.188 1815.42 434.792 1794.81 460.208 1794.81Z" fill="#A4B0C0" fill-rule="nonzero" fill-opacity="1" transform="matrix(1 0 0 1 1051 125)"/><path d="M966.438 1794.81C991.854 1794.81 1012.46 1815.42 1012.46 1840.83L1012.46 1978.9C1012.46 2004.31 991.854 2024.92 966.438 2024.92L828.375 2024.92C802.958 2024.92 782.354 2004.31 782.354 1978.9L782.354 1840.83C782.354 1815.42 802.958 1794.81 828.375 1794.81Z" fill="#A4B0C0" fill-rule="nonzero" fill-opacity="1" transform="matrix(1 0 0 1 1051 125)"/><path d="M1334.6 1794.81C1360.02 1794.81 1380.62 1815.42 1380.62 1840.83L1380.62 1978.9C1380.62 2004.31 1360.02 2024.92 1334.6 2024.92L1196.54 2024.92C1171.12 2024.92 1150.52 2004.31 1150.52 1978.9L1150.52 1840.83C1150.52 1815.42 1171.12 1794.81 1196.54 1794.81Z" fill="#A4B0C0" fill-rule="nonzero" fill-opacity="1" transform="matrix(1 0 0 1 1051 125)"/><path d="M598.271 1426.65C623.687 1426.65 644.292 1447.25 644.292 1472.67L644.292 1610.73C644.292 1636.15 623.687 1656.75 598.271 1656.75L460.208 1656.75C434.792 1656.75 414.188 1636.15 414.188 1610.73L414.188 1472.67C414.188 1447.25 434.792 1426.65 460.208 1426.65Z" fill="#A4B0C0" fill-rule="nonzero" fill-opacity="1" transform="matrix(1 0 0 1 1051 125)"/><path d="M966.438 1426.65C991.854 1426.65 1012.46 1447.25 1012.46 1472.67L1012.46 1610.73C1012.46 1636.15 991.854 1656.75 966.438 1656.75L828.375 1656.75C802.958 1656.75 782.354 1636.15 782.354 1610.73L782.354 1472.67C782.354 1447.25 802.958 1426.65 828.375 1426.65Z" fill="#A4B0C0" fill-rule="nonzero" fill-opacity="1" transform="matrix(1 0 0 1 1051 125)"/><path d="M1334.6 1426.65C1360.02 1426.65 1380.62 1447.25 1380.62 1472.67L1380.62 1610.73C1380.62 1636.15 1360.02 1656.75 1334.6 1656.75L1196.54 1656.75C1171.12 1656.75 1150.52 1636.15 1150.52 1610.73L1150.52 1472.67C1150.52 1447.25 1171.12 1426.65 1196.54 1426.65Z" fill="#A4B0C0" fill-rule="nonzero" fill-opacity="1" transform="matrix(1 0 0 1 1051 125)"/><path d="M598.271 1058.48C623.687 1058.48 644.292 1079.08 644.292 1104.5L644.292 1242.56C644.292 1267.98 623.687 1288.58 598.271 1288.58L460.208 1288.58C434.792 1288.58 414.188 1267.98 414.188 1242.56L414.188 1104.5C414.188 1079.08 434.792 1058.48 460.208 1058.48Z" fill="#A4B0C0" fill-rule="nonzero" fill-opacity="1" transform="matrix(1 0 0 1 1051 125)"/><path d="M966.438 1058.48C991.854 1058.48 1012.46 1079.08 1012.46 1104.5L1012.46 1242.56C1012.46 1267.98 991.854 1288.58 966.438 1288.58L828.375 1288.58C802.958 1288.58 782.354 1267.98 782.354 1242.56L782.354 1104.5C782.354 1079.08 802.958 1058.48 828.375 1058.48Z" fill="#A4B0C0" fill-rule="nonzero" fill-opacity="1" transform="matrix(1 0 0 1 1051 125)"/><path d="M1334.6 1058.48C1360.02 1058.48 1380.62 1079.08 1380.62 1104.5L1380.62 1242.56C1380.62 1267.98 1360.02 1288.58 1334.6 1288.58L1196.54 1288.58C1171.12 1288.58 1150.52 1267.98 1150.52 1242.56L1150.52 1104.5C1150.52 1079.08 1171.12 1058.48 1196.54 1058.48Z" fill="#A4B0C0" fill-rule="nonzero" fill-opacity="1" transform="matrix(1 0 0 1 1051 125)"/><path d="M598.271 690.312C623.687 690.312 644.292 710.917 644.292 736.333L644.292 874.396C644.292 899.812 623.687 920.417 598.271 920.417L460.208 920.417C434.792 920.417 414.188 899.812 414.188 874.396L414.188 736.333C414.188 710.917 434.792 690.312 460.208 690.312Z" fill="#4C5665" fill-rule="nonzero" fill-opacity="1" transform="matrix(1 0 0 1 1051 125)"/><path d="M598.271 690.312C623.687 690.312 644.292 710.917 644.292 736.333L644.292 874.396C644.292 899.812 623.687 920.417 598.271 920.417L460.208 920.417C434.792 920.417 414.188 899.812 414.188 874.396L414.188 736.333C414.188 710.917 434.792 690.312 460.208 690.312Z" fill="#A4B0C0" fill-rule="nonzero" fill-opacity="1" transform="matrix(1 0 0 1 1051 125)"/><path d="M966.438 690.312C991.854 690.312 1012.46 710.917 1012.46 736.333L1012.46 874.396C1012.46 899.812 991.854 920.417 966.438 920.417L828.375 920.417C802.958 920.417 782.354 899.812 782.354 874.396L782.354 736.333C782.354 710.917 802.958 690.312 828.375 690.312Z" fill="#A4B0C0" fill-rule="nonzero" fill-opacity="1" transform="matrix(1 0 0 1 1051 125)"/><path d="M1334.6 690.312C1360.02 690.312 1380.62 710.917 1380.62 736.333L1380.62 874.396C1380.62 899.812 1360.02 920.417 1334.6 920.417L1196.54 920.417C1171.12 920.417 1150.52 899.812 1150.52 874.396L1150.52 736.333C1150.52 710.917 1171.12 690.312 1196.54 690.312Z" fill="#A4B0C0" fill-rule="nonzero" fill-opacity="1" transform="matrix(1 0 0 1 1051 125)"/><path d="M1702.77 1058.48C1728.19 1058.48 1748.79 1079.08 1748.79 1104.5L1748.79 1242.56C1748.79 1267.98 1728.19 1288.58 1702.77 1288.58L1564.71 1288.58C1539.29 1288.58 1518.69 1267.98 1518.69 1242.56L1518.69 1104.5C1518.69 1079.08 1539.29 1058.48 1564.71 1058.48Z" fill="#A4B0C0" fill-rule="nonzero" fill-opacity="1" transform="matrix(1 0 0 1 1051 125)"/><path d="M1702.77 690.312C1728.19 690.312 1748.79 710.917 1748.79 736.333L1748.79 874.396C1748.79 899.812 1728.19 920.417 1702.77 920.417L1564.71 920.417C1539.29 920.417 1518.69 899.812 1518.69 874.396L1518.69 736.333C1518.69 710.917 1539.29 690.312 1564.71 690.312Z" fill="#A4B0C0" fill-rule="nonzero" fill-opacity="1" transform="matrix(1 0 0 1 1051 125)"/><path d="M1702.77 1426.65C1728.19 1426.65 1748.79 1447.25 1748.79 1472.67L1748.79 1978.9C1748.79 2004.31 1728.19 2024.92 1702.77 2024.92L1564.71 2024.92C1539.29 2024.92 1518.69 2004.31 1518.69 1978.9L1518.69 1472.67C1518.69 1447.25 1539.29 1426.65 1564.71 1426.65Z" fill="#A4B0C0" fill-rule="nonzero" fill-opacity="1" transform="matrix(1 0 0 1 1051 125)"/><path d="M414.188 138.062 1748.79 138.062 1748.79 552.25 414.188 552.25Z" fill="#49AAEE" fill-rule="nonzero" fill-opacity="1" transform="matrix(1 0 0 1 1051 125)"/></g></g></g></g></g></svg>