<svg width="2388" height="2388" xmlns="http://www.w3.org/2000/svg" xmlns:xlink="http://www.w3.org/1999/xlink" xml:space="preserve" overflow="hidden"><g transform="translate(-962 -96)"><g><rect x="963" y="98" width="2384" height="2384" fill="#FFFFFF" fill-opacity="1"/><g><g><g><path d="M184 1104C184 1612.1 595.898 2024 1104 2024 1612.1 2024 2024 1612.1 2024 1104 2024 595.898 1612.1 184 1104 184 595.898 184 184 595.898 184 1104Z" fill="#00ACC1" fill-rule="nonzero" fill-opacity="1" transform="matrix(1.00045 0 0 1 1050 186)"/><path d="M368 1104C368 1510.48 697.518 1840 1104 1840 1510.48 1840 1840 1510.48 1840 1104 1840 697.518 1510.48 368 1104 368 697.518 368 368 697.518 368 1104Z" fill="#EEEEEE" fill-rule="nonzero" fill-opacity="1" transform="matrix(1.00045 0 0 1 1050 186)"/><path d="M1058 506 1150 506 1150 1104 1058 1104Z" fill="#000000" fill-rule="nonzero" fill-opacity="1" transform="matrix(1.00045 0 0 1 1050 186)"/><path d="M1439.11 1364.08 1364.36 1438.88 1065.18 1139.7 1139.97 1064.85Z" fill="#000000" fill-rule="nonzero" fill-opacity="1" transform="matrix(1.00045 0 0 1 1050 186)"/><path d="M1012 1104C1012 1154.81 1053.19 1196 1104 1196 1154.81 1196 1196 1154.81 1196 1104 1196 1053.19 1154.81 1012 1104 1012 1053.19 1012 1012 1053.19 1012 1104Z" fill="#000000" fill-rule="nonzero" fill-opacity="1" transform="matrix(1.00045 0 0 1 1050 186)"/><path d="M1058 1104C1058 1129.41 1078.59 1150 1104 1150 1129.41 1150 1150 1129.41 1150 1104 1150 1078.59 1129.41 1058 1104 1058 1078.59 1058 1058 1078.59 1058 1104Z" fill="#00ACC1" fill-rule="nonzero" fill-opacity="1" transform="matrix(1.00045 0 0 1 1050 186)"/></g></g></g></g></g></svg>