<svg width="2388" height="2388" xmlns="http://www.w3.org/2000/svg" xmlns:xlink="http://www.w3.org/1999/xlink" xml:space="preserve" overflow="hidden"><defs><clipPath id="clip0"><rect x="1051" y="161" width="2210" height="2210"/></clipPath><clipPath id="clip1"><rect x="1051" y="161" width="2210" height="2210"/></clipPath><clipPath id="clip2"><rect x="1051" y="161" width="2210" height="2210"/></clipPath></defs><g transform="translate(-962 -73)"><g><rect x="964" y="74.9999" width="2384" height="2384" fill="#FFFFFF" fill-opacity="1"/><g clip-path="url(#clip0)"><g clip-path="url(#clip1)"><g clip-path="url(#clip2)"><path d="M1161.3 1346.41 1161.3 984.479 1084.9 984.479 1084.9 1346.41 712.511 1602.42 755.787 1665.39 1123.1 1412.85 1490.42 1665.39 1533.7 1602.42Z" fill="#E4EAF6" fill-rule="nonzero" fill-opacity="1" transform="matrix(1 0 0 1.00045 1052 162)"/><path d="M1281.79 722.943 1281.79 599.524 964.417 599.524 964.417 722.943 1123.1 863.997Z" fill="#E6AF78" fill-rule="nonzero" fill-opacity="1" transform="matrix(1 0 0 1.00045 1052 162)"/><path d="M1527.15 780.675 1308.97 729.343C1305.68 728.571 1302.65 727.251 1299.81 725.656L1123.1 828.738 953.274 720.671C948.875 724.811 943.424 727.885 937.223 729.343L719.049 780.675C687.188 788.17 664.673 816.598 664.673 849.33L664.673 987.42C664.673 1006.9 680.461 1022.68 699.936 1022.68L1546.25 1022.68C1565.73 1022.68 1581.51 1006.9 1581.51 987.42L1581.51 849.33C1581.52 816.602 1559.01 788.174 1527.15 780.675Z" fill="#707487" fill-rule="nonzero" fill-opacity="1" transform="matrix(1 0 0 1.00045 1052 162)"/><path d="M964.417 599.524 964.417 729.744C1164.32 801.763 1281.79 621.513 1281.79 621.513L1281.79 599.524C1281.79 599.524 964.417 599.524 964.417 599.524Z" fill="#D29B6E" fill-rule="nonzero" fill-opacity="1" transform="matrix(1 0 0 1.00045 1052 162)"/><path d="M893.895 193.998 909.261 532.02C910.697 563.601 926.179 592.878 951.467 611.849L1024.37 666.527C1042.68 680.262 1064.95 687.684 1087.84 687.684L1158.37 687.684C1181.25 687.684 1203.53 680.258 1221.84 666.527L1294.74 611.849C1320.03 592.883 1335.51 563.601 1336.95 532.02L1352.31 193.998 893.895 193.998Z" fill="#F0C087" fill-rule="nonzero" fill-opacity="1" transform="matrix(1 0 0 1.00045 1052 162)"/><path d="M1070.21 264.524C1140.73 264.524 1246.52 246.895 1271.62 193.998L893.895 193.998 909.256 532.02C910.692 563.601 926.174 592.878 951.463 611.849L1024.37 666.527C1042.68 680.262 1064.95 687.684 1087.84 687.684L1123.1 687.684C1087.84 687.684 1017.31 617.158 1017.31 528.997 1017.31 485.881 1017.31 370.31 1017.31 317.417 1017.31 299.788 1034.94 264.524 1070.21 264.524Z" fill="#E6AF78" fill-rule="nonzero" fill-opacity="1" transform="matrix(1 0 0 1.00045 1052 162)"/><path d="M1452.08 908.251 1566.33 805.618C1575.91 817.741 1581.52 832.994 1581.52 849.325L1581.52 987.416C1581.52 1006.89 1565.74 1022.68 1546.26 1022.68L1422.84 1022.68 1422.84 973.832C1422.84 948.81 1433.48 924.975 1452.08 908.251Z" fill="#5B5D6E" fill-rule="nonzero" fill-opacity="1" transform="matrix(1 0 0 1.00045 1052 162)"/><path d="M794.121 908.251 679.87 805.618C670.296 817.741 664.681 832.994 664.681 849.325L664.681 987.416C664.681 1006.89 680.469 1022.68 699.945 1022.68L823.364 1022.68 823.364 973.832C823.368 948.81 812.734 924.975 794.121 908.251Z" fill="#5B5D6E" fill-rule="nonzero" fill-opacity="1" transform="matrix(1 0 0 1.00045 1052 162)"/><path d="M1167.18 1022.68 1079.02 1022.68 1090.04 863.997 1156.16 863.997Z" fill="#5B5D6E" fill-rule="nonzero" fill-opacity="1" transform="matrix(1 0 0 1.00045 1052 162)"/><path d="M1167.18 828.733 1079.02 828.733 1079.02 838.919C1079.02 862.509 1098.14 881.63 1121.73 881.63L1124.47 881.63C1148.06 881.63 1167.18 862.509 1167.18 838.919L1167.18 828.733 1167.18 828.733Z" fill="#515262" fill-rule="nonzero" fill-opacity="1" transform="matrix(1 0 0 1.00045 1052 162)"/><path d="M961.946 683.687 1123.1 828.729C1123.1 828.729 1077.97 851.512 1022.27 897.436 1010.78 906.91 993.397 903.072 987.239 889.514L911.525 722.939 935.476 687.012C941.44 678.072 953.951 676.498 961.946 683.687Z" fill="#5B5D6E" fill-rule="nonzero" fill-opacity="1" transform="matrix(1 0 0 1.00045 1052 162)"/><path d="M1284.26 683.687 1123.1 828.729C1123.1 828.729 1168.24 851.512 1223.94 897.436 1235.43 906.91 1252.81 903.072 1258.97 889.514L1334.68 722.939 1310.73 687.012C1304.77 678.072 1292.26 676.498 1284.26 683.687Z" fill="#5B5D6E" fill-rule="nonzero" fill-opacity="1" transform="matrix(1 0 0 1.00045 1052 162)"/><path d="M1229.99 77.1894 1246.52 194.002C1321.98 209.092 1332.85 327.504 1334.42 361.327 1334.7 367.464 1336.66 373.394 1339.99 378.556L1368.78 423.212C1368.78 423.212 1358.93 349.377 1404.04 299.792 1404.04 299.788 1419.53 6.66281 1229.99 77.1894Z" fill="#785550" fill-rule="nonzero" fill-opacity="1" transform="matrix(1 0 0 1.00045 1052 162)"/><path d="M1386.47 415.665 1366.56 495.312C1364.2 504.748 1355.72 511.368 1346 511.368 1335.31 511.368 1326.29 503.407 1324.96 492.802L1314.78 411.344C1312.06 389.561 1329.04 370.319 1350.99 370.319L1351.07 370.319C1374.8 370.314 1392.23 392.627 1386.47 415.665Z" fill="#F0C087" fill-rule="nonzero" fill-opacity="1" transform="matrix(1 0 0 1.00045 1052 162)"/><path d="M910.787 45.6004 936.869 63.4153C818.961 150.472 840.998 299.788 840.998 299.788 876.261 335.051 876.261 423.207 876.261 423.207L911.525 387.944C911.525 387.944 897.914 286.078 964.422 246.895 1026.13 210.532 1080.13 229.265 1135.23 229.265 1282.89 229.265 1324.21 173.617 1317.05 105.846 1313.35 70.7768 1259.73-2.26406 1123.1 0.0560625 1067.96 0.991875 964.417 17.6856 910.787 45.6004Z" fill="#694B4B" fill-rule="nonzero" fill-opacity="1" transform="matrix(1 0 0 1.00045 1052 162)"/><path d="M900.506 213.835C900.506 213.835 881.773 140.001 936.869 63.4153 818.961 150.472 840.998 299.788 840.998 299.788 876.261 335.051 876.261 423.207 876.261 423.207L911.525 387.944C911.525 387.944 897.914 286.078 964.422 246.895 1026.13 210.532 1080.13 229.265 1135.23 229.265 1159.24 229.265 1180.17 227.657 1198.81 224.901 1085.09 228.709 1018.05 142.571 900.506 213.835Z" fill="#5A4146" fill-rule="nonzero" fill-opacity="1" transform="matrix(1 0 0 1.00045 1052 162)"/><path d="M859.736 415.665 879.647 495.312C882.005 504.748 890.488 511.368 900.213 511.368 910.904 511.368 919.921 503.407 921.249 492.802L931.431 411.344C934.152 389.561 917.17 370.319 895.215 370.319L895.141 370.319C871.401 370.314 853.979 392.627 859.736 415.665Z" fill="#E6AF78" fill-rule="nonzero" fill-opacity="1" transform="matrix(1 0 0 1.00045 1052 162)"/><path d="M1334.68 987.42 1246.52 987.42C1227.05 987.42 1211.26 1003.21 1211.26 1022.68L1369.95 1022.68C1369.94 1003.21 1354.16 987.42 1334.68 987.42Z" fill="#5B5D6E" fill-rule="nonzero" fill-opacity="1" transform="matrix(1 0 0 1.00045 1052 162)"/><path d="M708.764 1907.2 708.764 1783.78 391.394 1783.78 391.394 1907.2 550.077 2048.25Z" fill="#E6AF78" fill-rule="nonzero" fill-opacity="1" transform="matrix(1 0 0 1.00045 1052 162)"/><path d="M954.123 1964.93 735.95 1913.6C732.655 1912.83 729.623 1911.51 726.79 1909.91L550.077 2012.99 380.255 1904.93C375.856 1909.07 370.405 1912.14 364.204 1913.6L146.03 1964.93C114.169 1972.43 91.6536 2000.85 91.6536 2033.59L91.6536 2171.68C91.6536 2191.15 107.442 2206.94 126.917 2206.94L973.232 2206.94C992.707 2206.94 1008.5 2191.15 1008.5 2171.68L1008.5 2033.59C1008.5 2000.85 985.984 1972.43 954.123 1964.93Z" fill="#EFF2FA" fill-rule="nonzero" fill-opacity="1" transform="matrix(1 0 0 1.00045 1052 162)"/><path d="M391.394 1783.78 391.394 1914C591.296 1986.01 708.764 1805.76 708.764 1805.76L708.764 1783.78 391.394 1783.78Z" fill="#D29B6E" fill-rule="nonzero" fill-opacity="1" transform="matrix(1 0 0 1.00045 1052 162)"/><path d="M320.867 1378.25 336.233 1716.28C337.669 1747.86 353.151 1777.13 378.439 1796.1L451.342 1850.78C469.653 1864.52 491.927 1871.94 514.813 1871.94L585.34 1871.94C608.226 1871.94 630.505 1864.51 648.811 1850.78L721.714 1796.1C747.003 1777.14 762.485 1747.86 763.921 1716.28L779.286 1378.25 320.867 1378.25Z" fill="#F0C087" fill-rule="nonzero" fill-opacity="1" transform="matrix(1 0 0 1.00045 1052 162)"/><path d="M497.184 1448.78C567.711 1448.78 673.5 1431.15 698.591 1378.25L320.867 1378.25 336.228 1716.27C337.664 1747.85 353.146 1777.13 378.435 1796.1L451.338 1850.78C469.649 1864.51 491.923 1871.94 514.809 1871.94L550.072 1871.94C514.809 1871.94 444.282 1801.41 444.282 1713.25 444.282 1670.13 444.282 1554.56 444.282 1501.67 444.287 1484.03 461.921 1448.78 497.184 1448.78Z" fill="#E6AF78" fill-rule="nonzero" fill-opacity="1" transform="matrix(1 0 0 1.00045 1052 162)"/><path d="M879.056 2092.5 993.307 1989.87C1002.88 2001.99 1008.5 2017.25 1008.5 2033.58L1008.5 2171.67C1008.5 2191.14 992.707 2206.93 973.232 2206.93L849.813 2206.93 849.813 2158.08C849.813 2133.07 860.447 2109.23 879.056 2092.5Z" fill="#E4EAF6" fill-rule="nonzero" fill-opacity="1" transform="matrix(1 0 0 1.00045 1052 162)"/><path d="M221.098 2092.5 106.847 1989.87C97.2728 2001.99 91.6579 2017.25 91.6579 2033.58L91.6579 2171.67C91.6579 2191.14 107.446 2206.93 126.921 2206.93L250.341 2206.93 250.341 2158.08C250.345 2133.07 239.71 2109.23 221.098 2092.5Z" fill="#E4EAF6" fill-rule="nonzero" fill-opacity="1" transform="matrix(1 0 0 1.00045 1052 162)"/><path d="M594.159 2206.93 505.999 2206.93 517.021 2048.25 583.136 2048.25Z" fill="#5B5D6E" fill-rule="nonzero" fill-opacity="1" transform="matrix(1 0 0 1.00045 1052 162)"/><path d="M594.159 2012.99 505.999 2012.99 505.999 2023.18C505.999 2046.76 525.12 2065.89 548.71 2065.89L551.444 2065.89C575.033 2065.89 594.155 2046.76 594.155 2023.18L594.155 2012.99 594.159 2012.99Z" fill="#515262" fill-rule="nonzero" fill-opacity="1" transform="matrix(1 0 0 1.00045 1052 162)"/><path d="M388.919 1867.94 550.077 2012.98C550.077 2012.98 504.942 2035.76 449.242 2081.69 437.753 2091.16 420.37 2087.32 414.211 2073.76L338.497 1907.19 362.448 1871.26C368.417 1862.32 380.927 1860.75 388.919 1867.94Z" fill="#E4EAF6" fill-rule="nonzero" fill-opacity="1" transform="matrix(1 0 0 1.00045 1052 162)"/><path d="M711.239 1867.94 550.081 2012.98C550.081 2012.98 595.216 2035.76 650.916 2081.69 662.404 2091.16 679.788 2087.32 685.946 2073.76L761.661 1907.19 737.709 1871.26C731.741 1862.32 719.23 1860.75 711.239 1867.94Z" fill="#E4EAF6" fill-rule="nonzero" fill-opacity="1" transform="matrix(1 0 0 1.00045 1052 162)"/><path d="M656.971 1261.44 673.5 1378.25C748.952 1393.34 759.828 1511.76 761.393 1545.58 761.678 1551.72 763.636 1557.64 766.965 1562.81L795.755 1607.46C795.755 1607.46 785.901 1533.63 831.019 1484.04 831.019 1484.03 846.509 1190.91 656.971 1261.44Z" fill="#785550" fill-rule="nonzero" fill-opacity="1" transform="matrix(1 0 0 1.00045 1052 162)"/><path d="M813.445 1599.92 793.535 1679.56C791.176 1689 782.693 1695.62 772.968 1695.62 762.278 1695.62 753.26 1687.66 751.932 1677.05L741.75 1595.59C739.029 1573.81 756.012 1554.57 777.966 1554.57L778.04 1554.57C801.78 1554.57 819.207 1576.88 813.445 1599.92Z" fill="#F0C087" fill-rule="nonzero" fill-opacity="1" transform="matrix(1 0 0 1.00045 1052 162)"/><path d="M337.764 1229.85 363.846 1247.67C245.938 1334.72 267.974 1484.04 267.974 1484.04 303.238 1519.3 303.238 1607.46 303.238 1607.46L338.501 1572.2C338.501 1572.2 324.891 1470.33 391.398 1431.15 453.11 1394.78 507.107 1413.52 562.203 1413.52 709.868 1413.52 751.19 1357.87 744.027 1290.1 740.323 1255.03 686.705 1181.99 550.081 1184.31 494.941 1185.24 391.394 1201.94 337.764 1229.85Z" fill="#694B4B" fill-rule="nonzero" fill-opacity="1" transform="matrix(1 0 0 1.00045 1052 162)"/><path d="M327.483 1398.08C327.483 1398.08 308.749 1324.25 363.846 1247.66 245.938 1334.72 267.974 1484.03 267.974 1484.03 303.238 1519.3 303.238 1607.45 303.238 1607.45L338.501 1572.19C338.501 1572.19 324.891 1470.33 391.398 1431.14 453.11 1394.78 507.107 1413.51 562.203 1413.51 586.22 1413.51 607.148 1411.9 625.787 1409.15 512.058 1412.96 445.024 1326.82 327.483 1398.08Z" fill="#5A4146" fill-rule="nonzero" fill-opacity="1" transform="matrix(1 0 0 1.00045 1052 162)"/><path d="M286.712 1599.92 306.623 1679.56C308.982 1689 317.465 1695.62 327.189 1695.62 337.88 1695.62 346.898 1687.66 348.226 1677.05L358.408 1595.6C361.129 1573.81 344.146 1554.57 322.191 1554.57L322.118 1554.57C298.378 1554.57 280.951 1576.88 286.712 1599.92Z" fill="#E6AF78" fill-rule="nonzero" fill-opacity="1" transform="matrix(1 0 0 1.00045 1052 162)"/><path d="M761.661 2171.67 673.5 2171.67C654.025 2171.67 638.237 2187.46 638.237 2206.93L796.924 2206.93C796.92 2187.46 781.132 2171.67 761.661 2171.67Z" fill="#E4EAF6" fill-rule="nonzero" fill-opacity="1" transform="matrix(1 0 0 1.00045 1052 162)"/><path d="M1734.33 1196.77C1378.65 1196.77 1418.08 1629.31 1419.71 1942.76 1419.77 1954.6 1425.97 1965.28 1436.11 1971.39 1475.53 1995.15 1583.77 2050.7 1734.34 2050.7 1884.9 2050.7 1993.14 1995.15 2032.56 1971.39 2042.7 1965.28 2048.9 1954.6 2048.96 1942.76 2050.58 1629.32 2090.02 1196.77 1734.33 1196.77Z" fill="#694B4B" fill-rule="nonzero" fill-opacity="1" transform="matrix(1 0 0 1.00045 1052 162)"/><path d="M1711.42 1197.67C1380.61 1216.22 1418.12 1636.29 1419.71 1942.76 1419.77 1954.6 1425.97 1965.28 1436.11 1971.39 1475.53 1995.15 1583.77 2050.7 1734.34 2050.7L1824.23 1421.49" fill="#5A4146" fill-rule="nonzero" fill-opacity="1" transform="matrix(1 0 0 1.00045 1052 162)"/><path d="M1734.33 1196.77C1532.09 1196.77 1518.04 1441.15 1518.04 1441.15 1634.61 1421.49 1706.25 1470.64 1824.22 1421.49L1734.33 2050.69C1884.9 2050.69 1993.14 1995.14 2032.55 1971.38 2042.69 1965.27 2048.89 1954.6 2048.96 1942.76 2050.58 1629.32 2090.02 1196.77 1734.33 1196.77Z" fill="#694B4B" fill-rule="nonzero" fill-opacity="1" transform="matrix(1 0 0 1.00045 1052 162)"/><path d="M2048.96 1942.76C2050.35 1673.42 2079.43 1316.4 1861.97 1221.19 1858.18 1240.9 1851.3 1295.9 1869.16 1331.61 1914.11 1421.5 1959.05 1421.5 2003.99 1488.9 2048.93 1736.09 1918.11 1998.45 1874.67 2034.17L1874.67 2034.17C1951.65 2015.87 2006.83 1986.89 2032.55 1971.39 2042.69 1965.27 2048.89 1954.6 2048.96 1942.76Z" fill="#785550" fill-rule="nonzero" fill-opacity="1" transform="matrix(1 0 0 1.00045 1052 162)"/><path d="M2074.86 2010.94 1874.35 1927.39C1857.6 1920.42 1846.69 1904.06 1846.69 1885.91L1846.69 1831.61 1621.97 1831.61 1621.97 1885.91C1621.97 1904.06 1611.06 1920.42 1594.32 1927.39L1393.8 2010.94C1368.68 2021.41 1352.32 2045.95 1352.32 2073.17L1352.32 2163.06C1352.32 2187.88 1372.44 2208 1397.26 2208L2071.41 2208C2096.23 2208 2116.35 2187.88 2116.35 2163.06L2116.35 2073.17C2116.35 2045.95 2099.99 2021.41 2074.86 2010.94Z" fill="#E6AF78" fill-rule="nonzero" fill-opacity="1" transform="matrix(1 0 0 1.00045 1052 162)"/><path d="M2074.86 2010.94 1880.99 1930.16 1734.33 1993.45 1587.68 1930.16 1393.8 2010.94C1368.68 2021.41 1352.31 2045.95 1352.31 2073.17L1352.31 2163.06C1352.31 2187.88 1372.44 2208 1397.26 2208L2071.4 2208C2096.22 2208 2116.35 2187.88 2116.35 2163.06L2116.35 2073.17C2116.35 2045.95 2099.99 2021.41 2074.86 2010.94Z" fill="#EFF2FA" fill-rule="nonzero" fill-opacity="1" transform="matrix(1 0 0 1.00045 1052 162)"/><path d="M1846.69 1831.6 1621.97 1831.6 1621.97 1885.9C1621.97 1904.05 1611.06 1920.41 1594.31 1927.39L1562.99 1940.44C1802.66 2001.54 1846.69 1831.6 1846.69 1831.6Z" fill="#D29B6E" fill-rule="nonzero" fill-opacity="1" transform="matrix(1 0 0 1.00045 1052 162)"/><path d="M1461.84 2097.87 1371.64 2026.12C1359.55 2038.48 1352.31 2055.19 1352.31 2073.17L1352.31 2163.06C1352.31 2187.88 1372.44 2208 1397.26 2208L1487.15 2208 1487.15 2150.51C1487.14 2130.03 1477.83 2110.66 1461.84 2097.87Z" fill="#E4EAF6" fill-rule="nonzero" fill-opacity="1" transform="matrix(1 0 0 1.00045 1052 162)"/><path d="M2116.35 2163.05 2116.35 2073.16C2116.35 2055.32 2109.22 2038.73 2097.31 2026.4L2006.82 2097.86C1990.83 2110.65 1981.52 2130.03 1981.52 2150.51L1981.52 2207.99 2071.41 2207.99C2096.22 2208 2116.35 2187.87 2116.35 2163.05Z" fill="#E4EAF6" fill-rule="nonzero" fill-opacity="1" transform="matrix(1 0 0 1.00045 1052 162)"/><path d="M1737.7 2163.05 1730.96 2163.05C1720.41 2163.05 1711.86 2154.5 1711.86 2143.95L1711.86 1993.51 1756.8 1993.51 1756.8 2143.95C1756.8 2154.5 1748.25 2163.05 1737.7 2163.05Z" fill="#E4EAF6" fill-rule="nonzero" fill-opacity="1" transform="matrix(1 0 0 1.00045 1052 162)"/><path d="M1734.33 1993.45 1605.72 1897C1597.46 1890.8 1585.7 1892.82 1579.98 1901.4L1554.56 1939.53 1633.42 2049.92C1639.41 2058.3 1651.22 2059.95 1659.27 2053.51L1734.33 1993.45Z" fill="#E4EAF6" fill-rule="nonzero" fill-opacity="1" transform="matrix(1 0 0 1.00045 1052 162)"/><path d="M1734.33 1993.45 1862.95 1897C1871.21 1890.8 1882.97 1892.82 1888.69 1901.4L1914.1 1939.53 1835.25 2049.92C1829.25 2058.3 1817.44 2059.95 1809.39 2053.51L1734.33 1993.45Z" fill="#E4EAF6" fill-rule="nonzero" fill-opacity="1" transform="matrix(1 0 0 1.00045 1052 162)"/><path d="M1846.69 1399.02C1734.33 1511.38 1513.83 1421.49 1513.83 1601.26L1527.78 1733.68C1530.48 1763.3 1547.64 1789.67 1573.64 1804.12L1701.59 1875.2C1721.95 1886.51 1746.7 1886.51 1767.06 1875.2L1895.01 1804.12C1921.01 1789.67 1938.18 1763.3 1940.87 1733.68L1956.98 1576.41C1958.13 1565.23 1958.37 1553.98 1957.99 1542.77 1949.59 1485.57 1869.16 1443.96 1846.69 1399.02Z" fill="#F0C087" fill-rule="nonzero" fill-opacity="1" transform="matrix(1 0 0 1.00045 1052 162)"/><path d="M1513.83 1601.26 1527.78 1733.68C1530.48 1763.3 1547.64 1789.67 1573.64 1804.12L1701.59 1875.2C1715.72 1883.05 1731.92 1885.08 1747.34 1882.04 1747.34 1882.04 1682.84 1862.49 1644.44 1758.56 1632.68 1726.73 1616.36 1558.19 1630.4 1537.59 1658.16 1496.88 1812.98 1492.65 1858.72 1417.12 1856.46 1414.31 1854.38 1411.51 1852.47 1408.7 1852.32 1408.47 1852.13 1408.24 1851.98 1408.01 1849.99 1405.03 1848.2 1402.03 1846.69 1399.02 1734.33 1511.38 1513.83 1421.49 1513.83 1601.26Z" fill="#E6AF78" fill-rule="nonzero" fill-opacity="1" transform="matrix(1 0 0 1.00045 1052 162)"/><path d="M1898.38 2163.05 1839.95 2163.05C1818.85 2163.05 1801.75 2180.15 1801.75 2201.25L1801.75 2207.99 1936.58 2207.99 1936.58 2201.25C1936.58 2180.16 1919.47 2163.05 1898.38 2163.05Z" fill="#E4EAF6" fill-rule="nonzero" fill-opacity="1" transform="matrix(1 0 0 1.00045 1052 162)"/></g></g></g></g></g></svg>