<svg width="2388" height="2393" xmlns="http://www.w3.org/2000/svg" xmlns:xlink="http://www.w3.org/1999/xlink" xml:space="preserve" overflow="hidden"><g transform="translate(-962 -4)"><g><rect x="963" y="8.99993" width="2384" height="2384" fill="#FFFFFF" fill-opacity="1"/><g><g><g><path d="M2476.65 1983.85C2502.06 1983.85 2522.67 2004.46 2522.67 2029.87L2522.67 2121.92C2522.67 2147.33 2502.06 2167.94 2476.65 2167.94L1832.35 2167.94C1806.94 2167.94 1786.33 2147.33 1786.33 2121.92L1786.33 2029.87C1786.33 2004.46 1806.94 1983.85 1832.35 1983.85Z" fill="#A4B0C0" fill-rule="nonzero" fill-opacity="1"/><path d="M2292.56 2259.98C2292.56 2285.4 2230.75 2306 2154.5 2306 2078.25 2306 2016.44 2285.4 2016.44 2259.98 2016.44 2234.56 2078.25 2213.96 2154.5 2213.96 2230.75 2213.96 2292.56 2234.56 2292.56 2259.98Z" fill="#A4B0C0" fill-rule="nonzero" fill-opacity="1"/><path d="M2934.28 815.155C2959.96 1125.16 2799.47 1420.9 2525.57 1568.33 2466.79 1600.41 2430.34 1662.13 2430.62 1729.08L2430.62 1753.75 1878.38 1753.75 1878.38 1729.13C1878.88 1662.44 1842.73 1600.86 1784.26 1568.79 1403.65 1364.27 1260.9 889.923 1465.43 509.312 1669.95 128.7 2144.29-14.0483 2524.91 190.475 2758.36 315.923 2912.43 551.031 2934.28 815.155Z" fill="#FED049" fill-rule="nonzero" fill-opacity="1"/><path d="M2525.43 1568.29C2466.73 1600.35 2430.33 1662.01 2430.63 1728.9L2430.62 1753.75 2137.93 1753.75C2140.82 1694.4 2170.22 1639.49 2218.01 1604.18 2437.85 1457.61 2651.85 1271.5 2702.75 998.87 2738.61 760.167 2684.25 516.665 2550.28 315.875 2483.38 201.74 2369.23 123.232 2238.72 101.602 2668.29 148.078 2978.86 533.993 2932.38 963.569 2904.65 1219.88 2752.43 1446.08 2525.43 1568.29Z" fill="#F6B445" fill-rule="nonzero" fill-opacity="1"/><path d="M2476.65 1753.75C2502.06 1753.75 2522.67 1774.35 2522.67 1799.77L2522.67 1891.81C2522.67 1917.23 2502.06 1937.83 2476.65 1937.83L1832.35 1937.83C1806.94 1937.83 1786.33 1917.23 1786.33 1891.81L1786.33 1799.77C1786.33 1774.35 1806.94 1753.75 1832.35 1753.75Z" fill="#A4B0C0" fill-rule="nonzero" fill-opacity="1"/><path d="M1878.38 2167.94 2430.62 2167.94 2365.55 2233.01C2348.29 2250.27 2324.89 2259.97 2300.48 2259.98L2008.52 2259.98C1984.11 2259.97 1960.71 2250.27 1943.45 2233.01Z" fill="#D0D7DF" fill-rule="nonzero" fill-opacity="1"/><path d="M1878.38 1937.83 2430.62 1937.83 2430.62 1983.85 1878.38 1983.85Z" fill="#D0D7DF" fill-rule="nonzero" fill-opacity="1"/></g></g></g></g></g></svg>