<svg width="2388" height="2388" xmlns="http://www.w3.org/2000/svg" xmlns:xlink="http://www.w3.org/1999/xlink" xml:space="preserve" overflow="hidden"><g transform="translate(-962 -192)"><g><rect x="963" y="196" width="2384" height="2384" fill="#FFFFFF" fill-opacity="1"/><g><g><g><path d="M2476.65 2169.85C2502.06 2169.85 2522.67 2190.46 2522.67 2215.87L2522.67 2307.92C2522.67 2333.33 2502.06 2353.94 2476.65 2353.94L1832.35 2353.94C1806.94 2353.94 1786.33 2333.33 1786.33 2307.92L1786.33 2215.87C1786.33 2190.46 1806.94 2169.85 1832.35 2169.85Z" fill="#A4B0C0" fill-rule="nonzero" fill-opacity="1"/><path d="M2292.56 2445.98C2292.56 2471.4 2230.75 2492 2154.5 2492 2078.25 2492 2016.44 2471.4 2016.44 2445.98 2016.44 2420.56 2078.25 2399.96 2154.5 2399.96 2230.75 2399.96 2292.56 2420.56 2292.56 2445.98Z" fill="#A4B0C0" fill-rule="nonzero" fill-opacity="1"/><path d="M2934.28 1001.15C2959.96 1311.16 2799.47 1606.9 2525.57 1754.33 2466.79 1786.41 2430.34 1848.13 2430.62 1915.08L2430.62 1939.75 1878.38 1939.75 1878.38 1915.13C1878.88 1848.44 1842.73 1786.86 1784.26 1754.79 1403.65 1550.27 1260.9 1075.92 1465.43 695.312 1669.95 314.7 2144.29 171.952 2524.91 376.475 2758.36 501.923 2912.43 737.031 2934.28 1001.16Z" fill="#FED049" fill-rule="nonzero" fill-opacity="1"/><path d="M2525.43 1754.29C2466.73 1786.35 2430.33 1848.01 2430.63 1914.9L2430.62 1939.75 2137.93 1939.75C2140.82 1880.4 2170.22 1825.49 2218.01 1790.18 2437.85 1643.61 2651.85 1457.5 2702.75 1184.87 2738.61 946.167 2684.25 702.665 2550.28 501.875 2483.38 387.74 2369.23 309.232 2238.72 287.602 2668.29 334.077 2978.86 719.993 2932.38 1149.57 2904.65 1405.88 2752.43 1632.08 2525.43 1754.29Z" fill="#F6B445" fill-rule="nonzero" fill-opacity="1"/><path d="M2476.65 1939.75C2502.06 1939.75 2522.67 1960.35 2522.67 1985.77L2522.67 2077.81C2522.67 2103.23 2502.06 2123.83 2476.65 2123.83L1832.35 2123.83C1806.94 2123.83 1786.33 2103.23 1786.33 2077.81L1786.33 1985.77C1786.33 1960.35 1806.94 1939.75 1832.35 1939.75Z" fill="#A4B0C0" fill-rule="nonzero" fill-opacity="1"/><path d="M1878.38 2353.94 2430.62 2353.94 2365.55 2419.01C2348.29 2436.27 2324.89 2445.97 2300.48 2445.98L2008.52 2445.98C1984.11 2445.97 1960.71 2436.27 1943.45 2419.01Z" fill="#D0D7DF" fill-rule="nonzero" fill-opacity="1"/><path d="M1878.38 2123.83 2430.62 2123.83 2430.62 2169.85 1878.38 2169.85Z" fill="#D0D7DF" fill-rule="nonzero" fill-opacity="1"/></g></g></g></g></g></svg>