<svg width="2388" height="2388" xmlns="http://www.w3.org/2000/svg" xmlns:xlink="http://www.w3.org/1999/xlink" xml:space="preserve" overflow="hidden"><g transform="translate(-962 -73)"><g><rect x="964" y="74.9999" width="2384" height="2384" fill="#FFFFFF" fill-opacity="1"/><g><g><g><path d="M874 552C730.762 551.858 589.308 583.764 460 645.38L460 801.78C585.577 728.302 728.506 689.711 874 690 1330.81 689.335 1701.66 1059.11 1702.33 1515.92 1702.63 1720.47 1627.12 1917.86 1490.4 2070L1666.12 2070C1709.34 2008.8 1744.87 1942.53 1771.92 1872.66 1817.11 1759.89 1840.22 1639.49 1840 1518 1839.42 984.735 1407.27 552.583 874 552Z" fill="#4C5665" fill-rule="nonzero" fill-opacity="1" transform="matrix(1 0 0 1 1057 151)"/><path d="M1840 2070C1865.4 2070 1886 2090.59 1886 2116L1886 2162C1886 2187.4 1865.4 2208 1840 2208L368 2208C342.595 2208 322 2187.4 322 2162L322 2116C322 2090.59 342.595 2070 368 2070Z" fill="#4C5665" fill-rule="nonzero" fill-opacity="1" transform="matrix(1 0 0 1 1057 151)"/><path d="M782 276C832.81 276 874 317.19 874 368L874 1242C874 1292.81 832.81 1334 782 1334L552 1334C501.19 1334 460 1292.81 460 1242L460 368C460 317.19 501.19 276 552 276Z" fill="#BEC3C7" fill-rule="nonzero" fill-opacity="1" transform="matrix(1 0 0 1 1057 151)"/><path d="M782 276C832.81 276 874 317.19 874 368L874 1242C874 1292.81 832.81 1334 782 1334L552 1334C501.19 1334 460 1292.81 460 1242L460 368C460 317.19 501.19 276 552 276Z" fill="#D0D7DF" fill-rule="nonzero" fill-opacity="1" transform="matrix(1 0 0 1 1057 151)"/><path d="M874 368 874 1242C873.848 1292.75 832.747 1333.85 782 1334L552 1334C501.253 1333.85 460.152 1292.75 460 1242L644 1242C694.747 1241.85 735.848 1200.75 736 1150L736 276 782 276C832.747 276.152 873.848 317.253 874 368Z" fill="#A4B0C0" fill-rule="nonzero" fill-opacity="1" transform="matrix(1 0 0 1 1057 151)"/><path d="M644 92 782 92 782 276 644 276Z" fill="#A4B0C0" fill-rule="nonzero" fill-opacity="1" transform="matrix(1 0 0 1 1057 151)"/><path d="M552 92 644 92 644 276 552 276" fill="#D0D7DF" fill-rule="nonzero" fill-opacity="1" transform="matrix(1 0 0 1 1057 151)"/><path d="M828 0C853.405-1.02141e-14 874 20.5949 874 46L874 46C874 71.4051 853.405 92 828 92L506 92C480.595 92 460 71.4051 460 46 460 20.5949 480.595-5.10703e-15 506-5.10703e-15Z" fill="#768BA0" fill-rule="nonzero" fill-opacity="1" transform="matrix(1 0 0 1 1057 151)"/><path d="M966 1748C991.405 1748 1012 1768.59 1012 1794L1012 1794C1012 1819.4 991.405 1840 966 1840L368 1840C342.595 1840 322 1819.4 322 1794 322 1768.59 342.595 1748 368 1748Z" fill="#BEC3C7" fill-rule="nonzero" fill-opacity="1" transform="matrix(1 0 0 1 1057 151)"/><path d="M966 1748C991.405 1748 1012 1768.59 1012 1794L1012 1794C1012 1819.4 991.405 1840 966 1840L368 1840C342.595 1840 322 1819.4 322 1794 322 1768.59 342.595 1748 368 1748Z" fill="#D0D7DF" fill-rule="nonzero" fill-opacity="1" transform="matrix(1 0 0 1 1057 151)"/><path d="M598 1840 736 1840 736 2070 598 2070Z" fill="#768BA0" fill-rule="nonzero" fill-opacity="1" transform="matrix(1 0 0 1 1057 151)"/><path d="M552 1334 782 1334 782 1380C782 1405.4 761.405 1426 736 1426L598 1426C572.595 1426 552 1405.4 552 1380L552 1334Z" fill="#4C5665" fill-rule="nonzero" fill-opacity="1" transform="matrix(1 0 0 1 1057 151)"/></g></g></g></g></g></svg>