<svg width="2388" height="2489" xmlns="http://www.w3.org/2000/svg" xmlns:xlink="http://www.w3.org/1999/xlink" xml:space="preserve" overflow="hidden"><defs><clipPath id="clip0"><rect x="1050" y="469" width="2210" height="2210"/></clipPath><clipPath id="clip1"><rect x="1050" y="469" width="2210" height="2210"/></clipPath><clipPath id="clip2"><rect x="1050" y="469" width="2210" height="2210"/></clipPath></defs><g transform="translate(-962 -192)"><g><rect x="963" y="196" width="2384" height="2384" fill="#FFFFFF" fill-opacity="1"/><g clip-path="url(#clip0)"><g clip-path="url(#clip1)"><g clip-path="url(#clip2)"><path d="M2177.51 2034.71 2177.51 2034.71C1783.57 2034.71 1464.19 1857.71 1464.19 1574.5L1464.19 1114.29 2890.83 1114.29 2890.83 1574.5C2890.83 1812.47 2571.45 2034.71 2177.51 2034.71Z" fill="#203442" fill-rule="nonzero" fill-opacity="1"/><path d="M3174.83 929.794 2306.37 505.16C2210.54 458.343 2098.46 458.343 2002.63 505.16L1134.17 929.794C1059.72 966.163 1028.85 1056 1065.22 1130.45 1081.03 1162.81 1107.95 1188.41 1141.08 1202.56L1257.09 1252.35 2018.42 1578.14C2105.33 1615.32 2203.67 1615.32 2290.58 1578.14L3051.91 1252.35 3167.92 1202.74C3244.17 1170.3 3279.67 1082.19 3247.23 1005.95 3233.06 972.667 3207.35 945.622 3174.83 929.794Z" fill="#4C5665" fill-rule="nonzero" fill-opacity="1"/><path d="M2890.83 2218.79C2865.42 2218.79 2844.81 2198.19 2844.81 2172.77L2844.81 1361.01 2196.75 1028.69C2174.13 1017.08 2165.2 989.324 2176.82 966.703 2188.44 944.082 2216.19 935.16 2238.81 946.776L2936.85 1304.77 2936.85 2172.77C2936.85 2198.19 2916.25 2218.79 2890.83 2218.79Z" fill="#ECF0F1" fill-rule="nonzero" fill-opacity="1"/><path d="M2384.6 976.229C2384.6 1052.48 2291.89 1114.29 2177.51 1114.29 2063.14 1114.29 1970.42 1052.48 1970.42 976.229 1970.42 899.979 2063.14 838.167 2177.51 838.167 2291.89 838.167 2384.6 899.979 2384.6 976.229Z" fill="#203442" fill-rule="nonzero" fill-opacity="1"/><path d="M3074.92 2264.81C3074.92 2366.48 2992.5 2448.9 2890.83 2448.9 2789.17 2448.9 2706.75 2366.48 2706.75 2264.81 2706.75 2163.15 2789.17 2080.73 2890.83 2080.73 2992.5 2080.73 3074.92 2163.15 3074.92 2264.81Z" fill="#FACE53" fill-rule="nonzero" fill-opacity="1"/></g></g></g></g></g></svg>