<svg width="2388" height="2388" xmlns="http://www.w3.org/2000/svg" xmlns:xlink="http://www.w3.org/1999/xlink" xml:space="preserve" overflow="hidden"><g transform="translate(-962 -18)"><g><rect x="963" y="18.9999" width="2384" height="2384" fill="#FFFFFF" fill-opacity="1"/><g><g><g><path d="M1104 279.032 1104 1928.96C1559.62 1928.96 1928.97 1559.61 1928.97 1104 1928.97 648.38 1559.62 279.032 1104 279.032Z" fill="#5195AF" fill-rule="nonzero" fill-opacity="1" transform="matrix(1 0 0 1.00045 1051 106)"/><path d="M1710.59 1104C1710.59 688.586 1439.01 351.822 1104 351.822L1104 279.032C648.384 279.032 279.032 648.384 279.032 1104 279.032 1559.62 648.384 1928.97 1104 1928.97L1104 1856.18C1439.01 1856.18 1710.59 1519.41 1710.59 1104Z" fill="#88ACB5" fill-rule="nonzero" fill-opacity="1" transform="matrix(1 0 0 1.00045 1051 106)"/><path d="M1104 642.99 1104 1565.01C1358.61 1565.01 1565.01 1358.61 1565.01 1104 1565.01 849.39 1358.61 642.99 1104 642.99Z" fill="#FFCD9C" fill-rule="nonzero" fill-opacity="1" transform="matrix(1 0 0 1.00045 1051 106)"/><path d="M1419.43 1104C1419.43 849.39 1278.2 642.99 1104 642.99 849.39 642.99 642.99 849.39 642.99 1104 642.99 1358.61 849.39 1565.01 1104 1565.01 1278.2 1565.01 1419.43 1358.61 1419.43 1104Z" fill="#FFFFFF" fill-rule="nonzero" fill-opacity="1" transform="matrix(1 0 0 1.00045 1051 106)"/><path d="M1283.63 0 923.104 0 901.558 232.427 1104 351.395 1305.11 231.737Z" fill="#C7E7EB" fill-rule="nonzero" fill-opacity="1" transform="matrix(1 0 0 1.00045 1051 106)"/><path d="M450.376 196.331 195.438 451.269 344.56 630.854 571.833 571.829 629.427 345.013Z" fill="#C7E7EB" fill-rule="nonzero" fill-opacity="1" transform="matrix(1 0 0 1.00045 1051 106)"/><path d="M0 924.367 0 1284.9 232.427 1306.44 351.395 1104 231.737 902.887Z" fill="#C7E7EB" fill-rule="nonzero" fill-opacity="1" transform="matrix(1 0 0 1.00045 1051 106)"/><path d="M196.331 1757.63 451.269 2012.56 630.854 1863.44 571.829 1636.17 345.013 1578.57Z" fill="#C7E7EB" fill-rule="nonzero" fill-opacity="1" transform="matrix(1 0 0 1.00045 1051 106)"/><path d="M924.367 2208 1284.9 2208 1306.44 1975.57 1104 1856.6 902.887 1976.26Z" fill="#C7E7EB" fill-rule="nonzero" fill-opacity="1" transform="matrix(1 0 0 1.00045 1051 106)"/><path d="M1757.63 2011.67 2012.56 1756.73 1863.44 1577.15 1636.17 1636.17 1578.57 1862.99Z" fill="#C7E7EB" fill-rule="nonzero" fill-opacity="1" transform="matrix(1 0 0 1.00045 1051 106)"/><path d="M2208 1283.63 2208 923.104 1975.57 901.558 1856.6 1104 1976.26 1305.11Z" fill="#C7E7EB" fill-rule="nonzero" fill-opacity="1" transform="matrix(1 0 0 1.00045 1051 106)"/><path d="M2011.67 450.376 1756.73 195.438 1577.15 344.56 1636.17 571.833 1862.99 629.427Z" fill="#C7E7EB" fill-rule="nonzero" fill-opacity="1" transform="matrix(1 0 0 1.00045 1051 106)"/><path d="M1104 206.245C1599.03 206.245 2001.76 608.977 2001.76 1104 2001.76 1599.03 1599.03 2001.76 1104 2001.76L1006.95 1928.97 1104 1856.18C1518.76 1856.18 1856.18 1518.77 1856.18 1104 1856.18 689.237 1518.76 351.831 1104 351.831L1006.95 279.04 1104 206.245Z" fill="#A7CBCF" fill-rule="nonzero" fill-opacity="1" transform="matrix(1 0 0 1.00045 1051 106)"/><path d="M1104 206.245 1104 351.827C689.237 351.827 351.822 689.237 351.822 1104 351.822 1518.77 689.237 1856.18 1104 1856.18L1104 2001.76C608.972 2001.76 206.241 1599.03 206.241 1104 206.241 608.977 608.972 206.245 1104 206.245Z" fill="#B7D9DD" fill-rule="nonzero" fill-opacity="1" transform="matrix(1 0 0 1.00045 1051 106)"/><path d="M1270.79 1067.6C1250.69 1067.6 1234.4 1051.31 1234.4 1031.21L1234.4 958.414C1234.4 938.31 1250.69 922.017 1270.79 922.017 1290.9 922.017 1307.19 938.31 1307.19 958.414L1307.19 1031.21C1307.19 1051.31 1290.9 1067.6 1270.79 1067.6Z" fill="#2F5E88" fill-rule="nonzero" fill-opacity="1" transform="matrix(1 0 0 1.00045 1051 106)"/><path d="M937.206 1067.6C917.101 1067.6 900.808 1051.31 900.808 1031.21L900.808 958.414C900.808 938.31 917.101 922.017 937.206 922.017 957.31 922.017 973.603 938.31 973.603 958.414L973.603 1031.21C973.603 1051.31 957.306 1067.6 937.206 1067.6Z" fill="#2F5E88" fill-rule="nonzero" fill-opacity="1" transform="matrix(1 0 0 1.00045 1051 106)"/><path d="M1104 1322.37C1017.2 1322.37 938.642 1270.95 903.857 1191.37 895.806 1172.94 904.211 1151.49 922.629 1143.44 941.039 1135.38 962.503 1143.79 970.554 1162.21 993.751 1215.29 1046.13 1249.58 1104 1249.58 1161.87 1249.58 1214.25 1215.29 1237.45 1162.21 1245.5 1143.8 1266.96 1135.38 1285.37 1143.44 1303.79 1151.49 1312.19 1172.95 1304.14 1191.37 1269.36 1270.95 1190.8 1322.37 1104 1322.37Z" fill="#FF0F47" fill-rule="nonzero" fill-opacity="1" transform="matrix(1 0 0 1.00045 1051 106)"/></g></g></g></g></g></svg>