<svg width="1718" height="1719" xmlns="http://www.w3.org/2000/svg" xmlns:xlink="http://www.w3.org/1999/xlink" xml:space="preserve" overflow="hidden"><g transform="translate(-550 -77)"><g><path d="M1409.56 108.125C951.747 108.125 580 479.943 580 938 580 1396.43 951.747 1767.87 1409.56 1767.87 1867.75 1767.87 2239 1396.43 2239 938 2239 479.943 1867.75 108.125 1409.56 108.125Z" fill="#ECEAE8" fill-rule="evenodd" fill-opacity="0.109804"/><path d="M1872.87 406 1872.87 406C2116.56 685.856 2102.01 1106.52 1839.74 1368.67 1702.7 1506.08 1522.13 1575.54 1341.17 1575.54 1176.41 1575.54 1011.27 1518.01 878.125 1401.7 1017.92 1562.61 1213.43 1643.87 1409.57 1643.87 1589.51 1643.87 1769.97 1575.42 1908.25 1437.12 2197 1148.1 2180.56 674.803 1872.87 406Z" fill="#ECEAE8" fill-rule="evenodd" fill-opacity="0.0588235"/><path d="M1409.46 81.1256C1371.29 81.1256 1332.75 83.6359 1293.95 88.9074 839.813 149.907 515.125 557.447 555.68 1013.69 595.23 1457 966.876 1794 1407.83 1794 1420.64 1794 1433.44 1793.62 1446.37 1793.12 1903.52 1772.79 2264.5 1396.12 2264.87 938.128 2264.87 923.066 2264.5 907.628 2263.62 892.692 2263.37 875.873 2251.06 867.715 2238.76 867.715 2225.45 867.715 2212.14 877.128 2213.65 895.328 2214.53 909.385 2215.03 923.945 2215.03 938.128 2214.53 1367.38 1876.15 1720.2 1447.63 1739.28 1435.58 1739.78 1423.52 1740.03 1411.6 1740.03 998.265 1740.03 650.098 1424.24 613.185 1008.79 574.765 581.294 879.112 199.359 1304.5 141.874 1340.91 136.979 1377.07 134.594 1412.73 134.594 1794.92 134.594 2131.91 407.71 2201.72 793.662 2204.86 807.469 2215.41 813.744 2226.08 813.744 2240.01 813.744 2253.95 803.201 2251.19 784.876 2176.48 372.943 1817.39 81.1256 1409.46 81.1256Z" fill="#FFD56B" fill-rule="evenodd" fill-opacity="1"/><path d="M1412.15 207C1214.37 207 1017.34 286.575 873.144 442.589 854.571 461.164 871.764 486.142 891.09 486.142 897.49 486.142 904.142 483.38 909.789 476.603 1043.44 332.388 1225.66 258.962 1408.51 258.962 1564.5 258.962 1721.11 312.431 1848.49 421 2125.84 657.216 2166.37 1070.16 1941.61 1356.83 1808.08 1527.15 1608.67 1616.89 1407 1616.89 1269.33 1616.89 1130.66 1575.1 1010.81 1488.87 715.899 1275.5 640.853 867.451 841.771 563.583 849.677 552.162 846.665 536.221 835.119 528.691 830.727 525.929 825.833 524.674 821.064 524.674 812.907 524.674 805.001 528.565 800.232 535.845 583 863.937 663.819 1305.12 982.576 1535.18 1112.09 1628.69 1262.05 1673.87 1410.76 1673.87 1628.62 1673.87 1843.72 1576.98 1988.04 1392.98 2230.87 1083.46 2186.7 637.385 1887.39 382.091 1749.73 264.736 1580.69 207 1412.15 207Z" fill="#FFD56B" fill-rule="evenodd" fill-opacity="1"/><path d="M826.625 913.125C812.625 913.125 802 924.153 802 937.812 802 951.972 813 963 826.625 963L862.25 963C894 961.621 894 914.504 862.25 913.125Z" fill="#FFD56B" fill-rule="evenodd" fill-opacity="1"/><path d="M1409.98 331C1397.93 331 1385.75 339.029 1385.13 355.211L1385.13 937.785C1385.13 951.961 1396.17 963 1409.85 963L1993.24 963C2025 961.62 2025 914.452 1993.24 913.072L1434.95 913.072 1434.95 355.211C1434.33 339.029 1422.15 331 1409.98 331Z" fill="#FFD56B" fill-rule="evenodd" fill-opacity="1"/><path d="M1409.81 1461C1397.78 1461 1385.75 1469.04 1385.13 1484.86L1385.13 1521.14C1385.75 1537.09 1397.78 1545 1409.81 1545 1421.84 1545 1434 1537.09 1434.87 1521.14L1434.87 1484.86C1434 1469.04 1421.84 1461 1409.81 1461Z" fill="#FFD56B" fill-rule="evenodd" fill-opacity="1"/><path d="M997.059 500.126C977.585 500.126 961 525.332 979.595 543.516L1004.85 569.099C1010.38 574.617 1016.53 577 1022.44 577 1042.16 577 1059 551.668 1040.66 533.358L1015.03 508.277C1009.37 502.508 1003.09 500.126 997.059 500.126Z" fill="#FFD56B" fill-rule="evenodd" fill-opacity="1"/><path d="M1796.37 1300C1790 1300 1783.62 1302.5 1778.75 1307.24 1769.12 1316.97 1769.12 1332.82 1778.75 1342.43L1804.25 1367.89C1809.75 1373.5 1815.87 1375.88 1821.75 1375.88 1841.12 1375.88 1858 1350.54 1839.5 1332.82L1814 1307.24C1809.12 1302.5 1802.75 1300 1796.37 1300Z" fill="#FFD56B" fill-rule="evenodd" fill-opacity="1"/><path d="M1821.45 500.126C1815.7 500.126 1809.69 502.395 1804.18 507.94L1778.65 533.144C1760.13 551.544 1777.02 577 1796.42 577 1802.3 577 1808.44 574.606 1813.94 569.061L1839.48 543.352C1857 524.953 1840.6 500.126 1821.45 500.126Z" fill="#FFD56B" fill-rule="evenodd" fill-opacity="1"/><path d="M1022.2 1299.13C1016.49 1299.13 1010.4 1301.26 1005.05 1306.54L980.068 1332.29C970 1341.96 970 1357.92 980.068 1367.59 984.915 1372.49 991.254 1374.87 997.593 1374.87 1003.93 1374.87 1010.27 1372.49 1015.12 1367.59L1040.47 1341.96C1058 1323.87 1041.47 1299.13 1022.2 1299.13Z" fill="#FFD56B" fill-rule="evenodd" fill-opacity="1"/><path d="M870.936 684.127C846.727 684.127 835 722.437 863.119 733.184L896.407 747.471C899.811 749.115 903.468 749.874 906.999 749.874 916.834 749.874 926.291 744.058 930.2 734.575 935.874 721.172 929.317 706.127 915.951 701.195L882.663 687.035C878.502 685.012 874.593 684.127 870.936 684.127Z" fill="#FFD56B" fill-rule="evenodd" fill-opacity="1"/><path d="M1913.11 1127C1888.74 1127 1877.13 1163.04 1903.01 1175.18L1936.35 1189.47C1939.76 1191.11 1943.42 1191.87 1946.96 1191.87 1956.81 1191.87 1966.4 1186.06 1970.57 1176.57 1975.87 1163.17 1969.69 1148.12 1956.43 1143.19L1923.09 1129.02C1919.55 1127.63 1916.27 1127 1913.11 1127Z" fill="#FFD56B" fill-rule="evenodd" fill-opacity="1"/><path d="M1637.16 375.126C1628.21 375.126 1619.37 379.926 1615.15 391.545L1601.09 424.889C1594.12 441.308 1605.94 460 1623.85 460 1633.93 460 1642.64 453.685 1646.62 444.339L1660.67 411.122C1669.88 390.788 1653.33 375.126 1637.16 375.126Z" fill="#FFD56B" fill-rule="evenodd" fill-opacity="1"/><path d="M1194.75 1417C1186.12 1417 1177.62 1421.41 1172.88 1431.74L1158.75 1464.99C1153 1477.33 1158.75 1491.94 1171.5 1497.73 1174.75 1499.24 1178.12 1499.87 1181.5 1499.87 1191.25 1499.87 1200.62 1493.95 1204.5 1484.38L1218.63 1451.13C1226 1431.74 1210.38 1417 1194.75 1417Z" fill="#FFD56B" fill-rule="evenodd" fill-opacity="1"/><path d="M1192.61 373.127C1176.87 373.127 1161 387.446 1167.98 406.96L1181.31 440.414C1185.37 449.791 1194.76 456 1205.04 456 1222.81 456 1234.87 438.133 1228.27 421.153L1214.82 387.826C1209.99 377.435 1201.36 373.127 1192.61 373.127Z" fill="#FFD56B" fill-rule="evenodd" fill-opacity="1"/><path d="M1614.6 1420.13C1611.46 1420.13 1608.2 1420.75 1605.07 1422.01L1605.44 1422.01C1592.65 1426.77 1586.13 1441.44 1591.39 1454.23L1605.07 1487.33C1609.83 1497.61 1618.36 1502 1627.02 1502 1642.45 1502 1657.87 1487.96 1651.35 1468.77L1637.68 1435.67C1634.04 1426.02 1624.51 1420.13 1614.6 1420.13Z" fill="#FFD56B" fill-rule="evenodd" fill-opacity="1"/><path d="M1949.5 695.126C1946.61 695.126 1943.47 695.631 1940.34 696.767L1907.22 710.148C1882 720.752 1889.15 759 1916.88 759 1920.01 759 1923.15 757.99 1926.16 756.728L1959.28 743.347C1985 731.481 1973.58 695.126 1949.5 695.126Z" fill="#FFD56B" fill-rule="evenodd" fill-opacity="1"/><path d="M902.928 1117C899.545 1117 896.036 1117.75 892.652 1119.14L859.571 1132.84C831.125 1142.9 842.654 1182 867.089 1182 870.723 1182 874.482 1181.12 878.492 1179.36L911.574 1165.66C924.857 1161.13 931.875 1146.17 926.11 1132.84 922.226 1122.91 912.827 1117 902.928 1117Z" fill="#FFD56B" fill-rule="evenodd" fill-opacity="1"/></g></g></svg>