<svg width="2411" height="2393" xmlns="http://www.w3.org/2000/svg" xmlns:xlink="http://www.w3.org/1999/xlink" xml:space="preserve" overflow="hidden"><g transform="translate(-939 -210)"><g><path d="M1056.99 1464.18 1051.9 1464.7 1049.44 1464.7 1045.75 1465.93 1043.29 1466.64 1040.3 1467.86C1039.6 1467.86 1038.37 1468.39 1037.84 1469.09L1035.21 1469.62C1033.98 1470.85 1032.75 1471.55 1031.52 1472.78 1005 1494.92 1009.39 1568.53 1013.08 1634.05 1018.52 1724.88 1114.95 1815.18 1151.48 1842.41 1159.56 1847.85 1163.78 1857.16 1163.78 1866.47L1163.78 1958 1204 1958 1204 1866.47C1204 1856.64 1199.61 1847.85 1191.71 1842.41 1155.17 1815.18 1058.75 1724.35 1053.13 1633.53 1049.44 1568.53 1044.52 1494.39 1071.22 1472.78 1072.45 1471.55 1074.2 1470.32 1075.43 1469.62L1077.36 1468.39C1078.59 1467.86 1079.12 1467.86 1080.35 1467.16L1083.51 1465.93 1085.97 1465.41 1086.5 1465.41 1081.58 1464.7 1074.2 1464.18Z" fill="#9EB2C1" fill-rule="evenodd" fill-opacity="0.14902"/><path d="M1583.43 1352.18C1564.06 1352.18 1548.42 1367.63 1548.42 1386.78L1548.42 1462.66C1548.42 1464.07 1548.42 1465.3 1548.42 1466.53L1548.42 1467.76C1547.71 1468.99 1547.71 1470.22 1547.18 1471.45 1547.18 1472.68 1546.46 1473.91 1545.93 1475.14L1545.22 1475.66C1545.22 1476.89 1544.69 1477.6 1543.98 1478.83L1543.98 1479.35C1543.44 1480.06 1542.2 1481.28 1541.49 1481.99L1540.95 1483.22 1539 1484.97C1543.98 1489.36 1550.55 1491.82 1557.31 1491.82 1558.19 1491.82 1558.9 1491.82 1559.62 1491.82 1564.06 1491.82 1567.79 1491.12 1571.52 1489.89 1572.77 1489.36 1574.01 1488.66 1575.25 1488.14L1575.97 1487.43C1577.21 1486.91 1577.74 1486.2 1578.99 1484.97L1579.7 1484.97 1581.47 1482.51 1582.72 1481.99C1583.43 1480.76 1583.96 1480.06 1584.67 1478.83L1584.67 1478.12C1585.21 1477.6 1585.92 1476.37 1586.45 1475.14L1587.16 1474.43C1587.16 1473.2 1587.69 1471.97 1588.41 1470.75 1588.41 1469.52 1588.94 1468.29 1588.94 1467.06L1588.94 1466.53C1588.94 1465.3 1588.94 1464.07 1588.94 1462.14L1588.94 1386.08C1588.94 1374.31 1595.34 1363.24 1605.82 1357.09 1601.56 1353.93 1597.11 1352.7 1592.14 1352.18Z" fill="#9EB2C1" fill-rule="evenodd" fill-opacity="0.14902"/><path d="M1449.58 1325.18C1436.69 1325.18 1424.5 1332.52 1418.93 1344.24L1417.71 1345.99 1417.71 1443.26C1418.23 1444.48 1418.23 1445.71 1417.71 1447.11L1417.71 1448.33C1417.71 1448.86 1417.71 1450.08 1417.01 1451.31 1416.49 1452.53 1416.49 1453.76 1415.79 1454.98L1415.27 1455.68C1414.57 1456.91 1414.57 1458.13 1414.05 1458.65L1414.05 1459.35C1413.35 1460.58 1412.13 1461.1 1411.61 1462.33L1410.92 1463.03 1409.17 1464.95C1414.05 1469.85 1421.37 1472.82 1428.68 1472.82 1433.03 1472.82 1436.69 1472.3 1440.35 1470.38L1441.04 1470.38C1442.26 1470.38 1442.79 1469.85 1444.01 1469.15L1444.7 1468.63C1445.92 1467.93 1447.14 1467.4 1447.66 1466.18L1448.36 1465.48 1450.8 1463.73 1451.32 1463.03C1452.02 1461.8 1453.24 1460.58 1453.76 1459.88L1453.76 1459.35C1454.45 1458.13 1454.98 1457.43 1454.98 1456.21L1455.67 1455.68C1456.37 1454.46 1456.89 1453.23 1456.89 1452.01 1457.59 1450.78 1457.59 1449.56 1458.11 1448.33L1458.11 1447.63C1458.11 1446.41 1458.11 1445.18 1458.11 1443.26L1458.11 1345.47 1458.81 1344.24C1461.77 1338.12 1466.12 1333.75 1471 1330.07 1467.34 1327.62 1462.47 1325.7 1458.11 1325.18Z" fill="#9EB2C1" fill-rule="evenodd" fill-opacity="0.14902"/><path d="M1318.24 1300C1305.09 1300 1293.36 1306.84 1286.96 1317.9L1286.42 1319.83 1286.42 1443.17C1286.42 1444.4 1286.42 1445.63 1286.42 1447.03L1286.42 1448.26C1286.42 1448.79 1285.71 1450.02 1285.71 1451.24 1285.18 1452.47 1284.47 1453.7 1283.93 1454.93L1283.93 1455.63C1283.22 1456.86 1282.69 1458.09 1281.98 1458.61L1281.98 1459.31C1281.44 1460.54 1280.73 1461.07 1279.49 1462.3L1278.96 1463 1277 1464.93C1282.69 1470.37 1290.16 1472.82 1298.33 1472.82 1302.07 1472.82 1305.8 1472.3 1309.53 1470.37L1310.24 1470.37C1311.49 1470.37 1312.73 1469.84 1313.98 1469.14L1314.51 1468.61C1315.22 1467.91 1316.47 1467.39 1317.71 1466.16L1318.24 1465.46 1320.2 1463.7 1320.73 1463C1321.98 1461.77 1322.69 1460.54 1323.4 1459.84L1323.4 1459.31C1323.93 1458.09 1324.64 1457.38 1325.18 1456.16L1325.18 1455.63C1325.89 1454.4 1326.42 1453.17 1327.13 1451.95 1327.13 1450.72 1327.67 1449.49 1327.67 1448.26L1327.67 1447.56C1327.67 1446.33 1327.67 1445.1 1327.67 1443.17L1327.67 1319.83 1328.38 1317.9C1331.4 1312.28 1335.84 1308.07 1340.82 1304.91 1337.09 1301.93 1332.11 1300.7 1327.13 1300Z" fill="#9EB2C1" fill-rule="evenodd" fill-opacity="0.14902"/><path d="M1188.49 1262.18C1168.99 1262.18 1153.39 1278.13 1153.39 1297.43L1153.39 1468.24 1168.99 1470.17 1153.39 1473.15 1153.39 1523.84C1153.39 1525.06 1153.39 1526.29 1153.39 1527.52L1153.39 1528.75C1153.39 1529.97 1152.86 1531.2 1152.86 1532.43 1152.15 1533.66 1151.62 1534.88 1151.62 1536.11L1150.91 1536.81C1150.38 1538.04 1149.67 1538.57 1149.14 1539.79L1149.14 1540.5C1148.43 1541.02 1147.9 1542.25 1147.19 1542.95L1145.95 1544.18 1144.18 1545.93C1149.85 1551.19 1157.29 1553.82 1164.74 1553.82 1168.81 1553.82 1172.89 1553.12 1176.61 1551.54L1177.15 1551.54C1178.39 1551.02 1179.1 1550.32 1180.34 1549.79L1180.87 1549.09C1182.11 1548.56 1183.35 1547.86 1184.06 1547.34L1184.59 1546.63 1187.07 1544.18 1187.78 1543.48C1188.49 1542.25 1189.02 1541.72 1190.26 1540.5L1190.26 1539.79C1190.26 1539.27 1190.97 1538.04 1191.5 1536.81L1192.21 1536.11C1192.21 1534.88 1192.74 1533.66 1193.45 1532.43 1193.45 1531.2 1193.98 1529.97 1193.98 1529.27L1193.98 1528.04C1193.98 1526.82 1193.98 1525.59 1193.98 1523.84L1193.98 1296.72C1193.98 1284.97 1200.19 1273.22 1210.82 1267.09 1206.57 1264.63 1202.14 1262.7 1197.17 1262.18Z" fill="#9EB2C1" fill-rule="evenodd" fill-opacity="0.14902"/><path d="M2524.06 486C2508.14 486 2493.46 496.592 2489.75 513.01L2456.84 619.816C2456.14 621.051 2455.61 622.287 2454.9 623.523L2454.37 624.759C2454.37 625.465 2453.66 625.994 2453.13 626.701 2451.89 629.172 2449.95 631.114 2448.18 632.879 2453.66 637.999 2460.74 640.824 2468.17 640.824 2471.35 640.824 2474.71 640.294 2478.07 639.058L2480.55 638.529C2486.03 636.057 2490.45 631.644 2493.64 626.701 2494.17 625.994 2494.88 625.465 2494.88 624.759L2496.12 623.523C2496.12 622.287 2496.65 621.051 2497.35 619.816L2530.96 513.01C2532.73 504.36 2538.39 496.239 2545.82 491.826 2542.82 490.06 2539.63 488.825 2535.92 487.589L2532.2 486.883C2529.37 486.353 2526.72 486 2524.06 486Z" fill="#A0988C" fill-rule="evenodd" fill-opacity="0.14902"/><path d="M2399.53 430C2388.71 430 2378.24 435.116 2371.25 444.642L2370.56 445.171 2333.73 570.596C2333.73 571.831 2333.2 573.595 2332.51 574.83L2331.98 576.065C2331.28 577.476 2330.76 578.005 2330.06 579.24L2329.54 579.946C2328.84 581.181 2328.32 581.71 2327.09 582.945L2325.87 584.18 2325.17 584.885C2328.32 587.884 2332.51 589.825 2336.87 591.589 2339.31 592.294 2342.45 592.824 2345.42 592.824 2349.79 592.824 2353.45 591.589 2357.12 589.825 2360.26 589.119 2362.7 587.355 2365.15 585.414L2366.37 584.18 2367.59 582.945C2368.81 581.71 2369.33 581.181 2370.03 579.946L2370.56 579.24C2371.25 578.005 2371.78 577.476 2372.48 576.065L2373 574.83C2373.7 573.595 2374.22 572.36 2374.22 571.125L2411.23 445.171 2412.45 443.936C2414.89 440.232 2417.86 437.762 2421 435.292L2419.78 434.587C2418.56 434.057 2417.33 433.352 2416.11 432.823 2414.89 432.117 2413.67 432.117 2412.45 431.588L2407.39 430.882C2404.77 430.353 2402.15 430 2399.53 430Z" fill="#A0988C" fill-rule="evenodd" fill-opacity="0.14902"/><path d="M2279.11 375C2268.75 375 2258.74 379.394 2251.72 387.478L2250.49 388.709 2207.3 539.504C2206.6 541.437 2206.08 542.667 2205.37 543.898L2204.85 545.128C2204.14 545.831 2203.62 547.061 2202.92 548.291L2202.39 548.819C2201.69 550.049 2201.16 550.752 2199.93 551.982L2198.7 553.212 2198 553.74C2201.16 556.903 2205.37 559.364 2209.76 560.594 2212.92 561.297 2215.38 561.824 2218.36 561.824 2221.52 561.824 2225.21 561.297 2228.37 560.067L2230.13 558.661C2233.29 557.43 2235.75 556.2 2238.2 554.443L2239.43 553.212 2240.66 551.279C2241.19 550.752 2242.59 550.049 2243.12 548.819L2243.82 548.291C2244.35 547.061 2245.05 545.831 2245.58 545.128L2246.28 543.898C2246.81 542.667 2246.81 541.437 2247.51 539.504L2291.22 388.709 2291.92 387.478C2294.38 385.018 2296.84 382.557 2300 380.624 2296.84 378.867 2293.86 377.636 2289.99 376.933L2286.31 375.703C2284.02 375.176 2281.57 375 2279.11 375Z" fill="#A0988C" fill-rule="evenodd" fill-opacity="0.14902"/><path d="M2159.29 309C2152.81 309 2146.51 310.753 2140.73 314.259 2133.38 319.168 2127.95 326.531 2125.5 335.822L2058.28 587.386C2057.58 588.613 2057.05 590.541 2056.35 591.768L2055.83 592.995C2055.13 594.223 2054.6 595.45 2053.9 596.677 2052.68 597.904 2052.15 598.605 2050.93 599.832L2050.23 601.06 2049 602.287C2052.15 605.267 2056.35 607.721 2061.43 608.948 2063.53 609.65 2065.81 609.825 2068.08 609.825 2072.81 609.825 2077.71 608.598 2082.26 606.494L2084.19 605.968C2084.71 605.267 2085.94 604.741 2087.16 603.514L2087.86 602.813C2089.09 602.287 2089.62 601.586 2090.32 601.06L2091.54 599.832C2092.24 598.605 2093.47 597.904 2093.99 596.677 2094.69 595.45 2095.22 594.223 2096.44 592.995L2096.44 591.768C2097.14 590.541 2097.67 588.613 2098.37 587.386L2166.12 335.822C2167.87 327.232 2172.77 319.694 2180.82 314.785 2177.85 313.032 2174 311.805 2171.02 311.104L2167.34 309.877C2164.54 309.351 2161.92 309 2159.29 309Z" fill="#A0988C" fill-rule="evenodd" fill-opacity="0.14902"/><path d="M1919.73 553 1917.27 560.555C1907.95 593.236 1901.09 625.916 1895.64 659.3 1894.41 669.842 1893.18 680.384 1893.7 690.223 1895.64 780.007 1964.93 872.601 1979.7 891.226L1982.16 894.915C1987.09 900.538 1989.55 907.214 1989.55 914.77L1989.55 1103.82 2029.82 1103.82 2029.82 914.77C2029.82 907.214 2027.36 901.065 2022.97 895.618L2019.98 891.753C2005.03 873.304 1935.74 780.534 1933.98 690.926 1933.98 681.087 1934.5 670.544 1936.44 660.002 1941.36 629.079 1947.52 598.858 1955.61 568.462L1919.73 553Z" fill="#A0988C" fill-rule="evenodd" fill-opacity="0.14902"/><path d="M3100.77 1116.18C3087.82 1116.18 3076.1 1123.52 3069.98 1135.24L3069.27 1136.99 3069.27 1234.26C3069.27 1235.48 3069.27 1236.71 3069.27 1237.93L3069.27 1239.16C3068.75 1240.38 3068.75 1241.61 3068.75 1242.31 3068.05 1243.53 3067.52 1244.76 3066.82 1245.98L3066.82 1247.21C3066.3 1247.91 3065.6 1249.13 3065.07 1249.65L3065.07 1250.35C3064.38 1251.58 3063.85 1252.1 3062.62 1253.33L3061.93 1254.03 3060 1256.48C3065.6 1261.38 3072.95 1263.82 3080.47 1263.82 3084.68 1263.82 3088.35 1263.3 3092.02 1261.38 3093.25 1261.38 3094.65 1260.68 3095.88 1260.15L3096.4 1259.45C3097.1 1258.93 3098.32 1257.7 3099.55 1257L3100.07 1256.48C3100.77 1255.78 3101.3 1255.25 3102 1254.55L3102.52 1254.03C3103.75 1252.8 3104.45 1251.58 3104.97 1250.88L3104.97 1250.35C3105.68 1249.13 3106.2 1248.43 3106.9 1247.21L3106.9 1246.68C3107.42 1245.28 3108.12 1244.06 3108.65 1242.83 3108.65 1241.61 3109.35 1240.38 3109.35 1239.16L3109.35 1237.93C3109.35 1236.71 3109.35 1235.48 3109.35 1234.26L3109.35 1136.47 3109.88 1134.54C3113.02 1129.12 3117.4 1124.05 3122.82 1121.07 3118.62 1118.62 3114.25 1116.7 3109.35 1116.18Z" fill="#7B7366" fill-rule="evenodd" fill-opacity="0.14902"/><path d="M3241.69 1142C3240.98 1142 3240.45 1142.18 3239.74 1142.53L3235.49 1142.53C3216.17 1142.53 3200.57 1158 3200.57 1177.16L3200.57 1253.29C3200.57 1254.52 3200.57 1255.75 3200.57 1256.98L3200.57 1258.21C3200.57 1259.44 3199.86 1260.67 3199.86 1261.9 3199.33 1263.13 3198.62 1264.36 3198.62 1265.59L3198.09 1266.3C3197.38 1266.83 3196.85 1268.06 3196.85 1269.29L3196.85 1269.99C3195.61 1270.52 3194.9 1271.75 3194.19 1272.45L3193.66 1273.68 3191.18 1275.44C3196.85 1280.54 3203.58 1283 3211.03 1283 3215.46 1283 3219.18 1282.3 3222.9 1281.07 3224.15 1280.54 3225.39 1279.84 3226.63 1279.13L3227.34 1278.6C3228.58 1277.9 3229.29 1277.37 3230.53 1276.14L3231.06 1275.44 3234.25 1273.68 3234.78 1272.45C3235.49 1271.75 3236.73 1270.52 3237.26 1269.99L3237.26 1268.76C3237.97 1268.06 3238.5 1266.83 3238.5 1266.3L3239.21 1265.07C3239.74 1264.36 3240.45 1263.13 3240.45 1261.9 3240.98 1260.67 3240.98 1259.44 3241.69 1258.21L3241.69 1256.98C3241.69 1255.75 3241.69 1254.52 3241.69 1253.29L3241.69 1176.46C3241.69 1164.86 3247.9 1153.6 3257.82 1146.92 3254.1 1144.29 3249.14 1143.05 3244.17 1142.53L3243.47 1142.53C3242.93 1142.18 3242.22 1142 3241.69 1142Z" fill="#7B7366" fill-rule="evenodd" fill-opacity="0.14902"/><path d="M2840.29 1053C2820.68 1053 2805.28 1068.48 2805.28 1087.65L2805.28 1259.16 2820.68 1260.92 2805.28 1264.08 2805.28 1314.92C2805.28 1316.15 2805.28 1317.38 2805.28 1318.61L2805.28 1319.85C2805.28 1321.08 2804.58 1322.31 2804.58 1323.54 2804.05 1324.77 2803.35 1326 2803.35 1327.23L2802.83 1327.76C2802.13 1328.47 2801.6 1329.7 2800.9 1330.93L2800.9 1331.63C2800.38 1332.16 2799.68 1333.39 2799.15 1334.09L2798.45 1335.33 2796 1337.08C2801.6 1342.36 2809.13 1345 2816.48 1345 2820.33 1345 2824.36 1344.3 2828.04 1342.71L2828.74 1342.71C2829.96 1342.01 2830.49 1341.48 2831.71 1340.78L2832.41 1340.25C2833.64 1339.55 2834.86 1339.02 2835.39 1338.32L2836.09 1337.79 2838.54 1335.33 2839.07 1334.62C2839.77 1333.39 2840.99 1332.86 2841.52 1331.63L2841.52 1330.93C2842.22 1329.7 2842.22 1328.99 2842.74 1327.76L2843.44 1327.23C2844.14 1326 2844.14 1324.77 2844.67 1323.54 2845.37 1322.31 2845.37 1321.08 2845.37 1319.85L2845.37 1319.14C2845.37 1317.91 2845.37 1316.15 2845.37 1314.92L2845.37 1087.65C2845.37 1075.34 2851.5 1064.26 2862 1057.93 2857.62 1055.46 2853.25 1053.7 2848.34 1053Z" fill="#7B7366" fill-rule="evenodd" fill-opacity="0.14902"/><path d="M2971.45 1091.18C2958.45 1091.18 2946.16 1098.01 2940.54 1109.58L2939.31 1111.51 2939.31 1234.2C2939.31 1235.43 2939.31 1236.66 2939.31 1237.88L2939.31 1239.11C2939.31 1240.34 2938.78 1241.56 2938.78 1242.79 2938.08 1244.02 2937.55 1245.25 2937.55 1246.65L2936.85 1247.17C2936.32 1247.87 2935.62 1249.1 2935.09 1250.33L2935.09 1250.85C2934.39 1251.56 2933.86 1252.78 2933.16 1253.31L2932.63 1254.54 2930.18 1256.46C2935.62 1261.37 2942.47 1263.82 2949.85 1263.82 2953.54 1263.82 2957.22 1263.3 2961.61 1261.37 2962.84 1260.67 2964.07 1260.67 2964.78 1260.14L2966.01 1259.44C2966.53 1258.92 2967.76 1257.69 2968.99 1256.99L2969.69 1256.46 2971.45 1254.54 2972.15 1253.31C2973.38 1252.78 2973.91 1251.56 2974.61 1250.85L2974.61 1250.33C2975.14 1249.1 2975.84 1247.87 2975.84 1247.17L2976.37 1246.65C2977.07 1245.25 2977.77 1244.02 2977.77 1242.79 2978.3 1241.56 2978.3 1240.34 2979 1239.11L2979 1237.88C2979 1236.66 2979 1235.43 2979 1234.2L2979 1110.81 2979.53 1109.05C2982.69 1104.15 2986.91 1099.24 2991.82 1096.08 2987.61 1093.63 2983.22 1091.7 2978.3 1091.18Z" fill="#7B7366" fill-rule="evenodd" fill-opacity="0.14902"/><path d="M2708.94 1255 2704.03 1255.7 2701.57 1255.7 2697.89 1256.23 2695.43 1257.46 2692.27 1258.16C2691.57 1258.69 2690.34 1259.39 2689.11 1259.92L2687.36 1260.62C2686.13 1261.85 2684.9 1262.37 2683.67 1263.78 2657 1285.9 2661.39 1359.46 2665.07 1424.25 2671.92 1533.63 2802.13 1631.95 2803.35 1633.18 2811.43 1638.62 2815.81 1647.93 2815.81 1657.23L2815.81 1748 2855.82 1748 2855.82 1657.23C2855.3 1647.22 2850.91 1638.62 2843.54 1632.47 2842.31 1631.95 2712.1 1533.63 2705.26 1424.25 2701.57 1359.46 2696.66 1285.37 2723.16 1263.08 2724.39 1262.37 2726.14 1261.14 2727.54 1260.62L2729.3 1259.39C2730.53 1259.39 2731.23 1258.69 2732.46 1258.16L2735.44 1256.93 2737.9 1256.23 2738.6 1256.23 2733.69 1255.7 2725.61 1255Z" fill="#7B7366" fill-rule="evenodd" fill-opacity="0.14902"/><path d="M1113.03 2026.17 1113.03 2143.83 1195 2143.83 1195 2026.17Z" fill="#BBC9D4" fill-rule="evenodd" fill-opacity="0.14902"/><path d="M1113.03 2220 1113.03 2520 1195 2520 1195 2220Z" fill="#6A7F91" fill-rule="evenodd" fill-opacity="0.14902"/><path d="M2765 2011.18 2765 2520 2859.97 2520 2859.97 2011.18Z" fill="#6A7F91" fill-rule="evenodd" fill-opacity="0.14902"/><path d="M2765 1816 2765 1935.82 2859.97 1935.82 2859.97 1816Z" fill="#BBC9D4" fill-rule="evenodd" fill-opacity="0.14902"/><path d="M1927.03 1176.18 1927.03 1295 2003 1295 2003 1176.18Z" fill="#BBC9D4" fill-rule="evenodd" fill-opacity="0.14902"/><path d="M1927.03 1371.18 1927.03 2520 2003 2520 2003 1371.18Z" fill="#6A7F91" fill-rule="evenodd" fill-opacity="0.14902"/><path d="M2910 1068C2888.39 1068 2871 1086.57 2871.7 1107.41L2871.7 1236.34C2871.7 1257.18 2888.92 1273.82 2910 1273.82 2931.08 1273.82 2947.77 1257.18 2947.77 1236.34L2947.77 1107.41C2949 1086.57 2931.61 1068 2910 1068Z" fill="#FFDB6E" fill-rule="evenodd" fill-opacity="1"/><path d="M3040.56 1089.18C3018.8 1089.18 3002 1107.03 3002.71 1128.56L3002.71 1236.37C3002.71 1257.2 3020.04 1273.82 3041.27 1273.82 3061.78 1273.82 3079.29 1257.2 3079.29 1236.37L3079.29 1128.56C3079.82 1107.03 3062.49 1089.18 3040.56 1089.18Z" fill="#FFDB6E" fill-rule="evenodd" fill-opacity="1"/><path d="M3172 1139C3150.39 1139 3133 1156.99 3134.23 1178.87L3134.23 1255.07C3134.23 1276.24 3150.92 1293 3172 1293 3192.91 1293 3209.59 1276.24 3209.59 1255.07L3209.59 1178.87C3210.82 1156.99 3193.61 1139 3172 1139Z" fill="#FFDB6E" fill-rule="evenodd" fill-opacity="1"/><path d="M2844.96 1062.54C2860.42 1062.54 2872.19 1074.84 2872.19 1089.77L2872.19 1107.69C2872.54 1131.76 2891.7 1145.29 2910.85 1145.29 2925.61 1145.29 2940.37 1137.21 2946.34 1119.46 2950.04 1108.22 2960.58 1100.84 2972.35 1100.84L2976.04 1100.84C2990.8 1100.84 3003.28 1113.31 3003.28 1128.07L3003.28 1133.69C3003.28 1157.76 3022.43 1171.47 3041.58 1171.47 3056.7 1171.47 3071.63 1163.03 3077.43 1144.76 3081.12 1133.69 3091.66 1125.61 3103.44 1125.61L3107.13 1125.61C3122.59 1125.61 3134.36 1137.91 3134.36 1152.84L3134.36 1178.84C3133.66 1200.45 3151.06 1218.9 3172.67 1218.9 3194.28 1218.9 3210.98 1200.45 3210.27 1178.84 3210.27 1163.91 3222.75 1151.61 3237.51 1151.61L3241.2 1151.61C3256.66 1151.61 3268.44 1163.91 3268.44 1178.84L3268.44 1356.81 3268.44 1360.5C3272.83 1405.65 3269.14 1536 3201.14 1594.16 3192.35 1601.01 3187.43 1611.37 3187.43 1622.62L3187.43 1742.43 2823.87 1742.43 2823.87 1659.68C2823.87 1647.21 2818.42 1636.14 2808.41 1628.76 2807.18 1628.06 2679.96 1531.79 2673.1 1426.03 2669.41 1366.12 2665.02 1290.58 2688.57 1271.43 2694.54 1266.33 2704.03 1263.87 2715.98 1263.87 2722.66 1263.87 2730.04 1264.58 2737.94 1265.98L2737.94 1317.28C2739.17 1341.35 2757.62 1353.3 2776.07 1353.3 2794.35 1353.3 2812.8 1341.35 2814.03 1317.28L2814.03 1089.77C2814.03 1074.84 2826.33 1062.54 2841.27 1062.54ZM3249.28 1818.5 3249.28 1937.79 2766.41 1937.79 2766.41 1818.5ZM3249.28 2013.86 3249.28 2522.63 2766.41 2522.63 2766.41 2013.86ZM2841.27 987.176C2784.33 987.176 2737.94 1033.56 2737.94 1090.3L2737.94 1189.21C2730.74 1188.51 2723.71 1188.16 2717.03 1188.16 2685.58 1188.16 2660.1 1196.59 2639.72 1213.45 2587.18 1257.9 2592.1 1345.57 2597.72 1430.95 2604.4 1546.55 2708.25 1644.22 2747.96 1678.13L2747.96 1743.13 2728.1 1743.13C2707.02 1743.13 2690.32 1760.35 2690.32 1781.43L2690.32 2560.23C2690.32 2581.31 2707.02 2598 2728.1 2598L3287.06 2598C3307.97 2598 3324.67 2581.31 3324.67 2560.23L3324.67 1780.73C3324.67 1759.82 3307.97 1743.13 3287.06 1742.43L3263.52 1742.43 3263.52 1639.31C3356.82 1544.61 3346.46 1376.49 3344.52 1354.88L3344.52 1178.84C3344.52 1121.92 3298.13 1075.54 3241.2 1075.54L3237.51 1075.54C3220.29 1075.54 3202.89 1079.94 3188.13 1088.54 3168.28 1063.77 3138.58 1049.54 3107.13 1049.54L3103.44 1049.54C3086.04 1049.54 3069.35 1053.93 3054.59 1062.02 3035.43 1038.47 3006.27 1024.77 2976.04 1024.77L2971.65 1024.77C2958.12 1024.77 2943.89 1027.93 2930.88 1033.56 2911.73 1004.39 2879.57 987.176 2844.96 987.176Z" fill="#FFDB6E" fill-rule="evenodd" fill-opacity="1"/><path d="M1258.5 1281C1239.87 1281 1221.42 1293.09 1220 1317.09L1220 1445.33C1220 1466.36 1237.56 1483 1258.85 1483 1279.97 1483 1296.82 1466.36 1296.82 1445.33L1296.82 1317.09C1295.58 1293.09 1277.13 1281 1258.5 1281Z" fill="#FFDB6E" fill-rule="evenodd" fill-opacity="1"/><path d="M1389 1298C1367.39 1298 1350 1315.87 1351.23 1337.42L1351.23 1445.33C1351.23 1466.36 1367.92 1483 1389 1483 1410.08 1483 1427.3 1466.36 1427.3 1445.33L1427.3 1337.42C1428 1315.87 1410.61 1298 1389 1298Z" fill="#FFDB6E" fill-rule="evenodd" fill-opacity="1"/><path d="M1520.76 1348.18C1499.29 1348.18 1482.17 1366.15 1482.7 1387.82L1482.7 1464.12C1482.7 1485.08 1499.98 1501.82 1520.76 1501.82 1541.71 1501.82 1558.3 1485.08 1558.3 1464.12L1558.3 1387.82C1559 1366.15 1542.41 1348.18 1520.76 1348.18Z" fill="#FFDB6E" fill-rule="evenodd" fill-opacity="1"/><path d="M1193.68 1272.26C1209.13 1272.26 1220.71 1284.03 1220.71 1299.49L1220.71 1316.71C1221.06 1340.78 1240.37 1354.49 1259.5 1354.49 1274.25 1354.49 1288.99 1346.23 1294.96 1328.48 1298.65 1317.41 1309.18 1309.86 1320.76 1309.86L1324.62 1309.86C1339.37 1309.86 1351.66 1322.33 1351.66 1337.09L1351.66 1342.71C1351.66 1366.96 1370.79 1380.49 1389.92 1380.49 1405.02 1380.49 1420.11 1372.06 1425.91 1353.78 1429.59 1342.71 1440.12 1334.63 1451.71 1334.63L1455.4 1334.63C1470.84 1334.63 1482.6 1347.11 1482.6 1361.86L1482.6 1388.4C1483.83 1412.47 1502.26 1424.59 1520.69 1424.59 1538.95 1424.59 1557.38 1412.47 1558.61 1388.4 1558.61 1372.93 1570.89 1361.16 1585.81 1361.16L1589.5 1361.16C1604.95 1361.16 1616.71 1372.93 1616.71 1388.4L1616.71 1565.86 1616.71 1569.55C1620.92 1614.7 1617.23 1745.08 1549.3 1803.23 1540.7 1810.09 1535.79 1820.63 1535.79 1832.4L1535.79 1952.23 1172.62 1952.23 1172.62 1868.77C1172.62 1856.47 1167 1845.23 1157.17 1838.55 1121.36 1811.32 1027.45 1723.46 1022.01 1635.09 1018.85 1575.17 1013.94 1500.32 1037.28 1480.64 1043.6 1475.55 1053.25 1473.09 1065.89 1473.09 1072.21 1473.09 1079.23 1473.79 1086.78 1475.02L1086.78 1526.32C1088.01 1550.4 1106.44 1562.52 1124.7 1562.52 1143.13 1562.52 1161.56 1550.4 1162.79 1526.32L1162.79 1299.49C1162.79 1284.03 1175.07 1272.26 1189.99 1272.26ZM1597.58 2027.61 1597.58 2146.91 1115.22 2146.91 1115.22 2027.61ZM1597.58 2222.99 1597.58 2522.92 1115.22 2522.92 1115.22 2222.99ZM1188.76 1196.18C1132.42 1196.18 1086.78 1242.39 1086.78 1298.79L1086.78 1398.41C1079.23 1397.53 1072.04 1397.18 1065.02 1397.18 1033.95 1397.18 1008.85 1405.09 988.659 1421.78 936 1466.41 941.09 1554.79 946.532 1639.48 953.378 1755.62 1057.12 1853.31 1096.61 1886.69L1096.61 1952.23 1076.95 1952.23C1055.89 1952.23 1038.69 1968.92 1039.21 1990.01L1039.21 2560.52C1038.69 2581.61 1055.89 2598.82 1076.95 2598.82L1635.14 2598.82C1656.2 2598.82 1672.88 2581.61 1672.88 2560.52L1672.88 1990.01C1672.88 1968.92 1656.2 1952.23 1635.14 1952.23L1611.79 1952.23 1611.79 1848.39C1705 1753.86 1694.47 1585.71 1692.71 1564.1L1692.71 1387.87C1692.71 1330.94 1646.37 1285.26 1589.5 1285.26L1585.81 1285.26C1584.76 1285.08 1583.88 1285.08 1582.83 1285.08 1566.51 1285.08 1550.36 1290 1536.32 1297.56 1517.01 1274.01 1488.22 1259.25 1457.33 1259.25 1456.8 1259.25 1456.1 1259.25 1455.4 1259.25L1451.71 1259.25C1435.03 1259.25 1418.36 1262.94 1403.61 1271.03 1383.78 1247.48 1354.82 1234.48 1324.62 1234.48L1320.76 1234.48C1319.71 1234.48 1318.48 1234.48 1317.25 1234.48 1304.26 1234.48 1291.45 1237.47 1280.04 1242.56 1260.91 1213.57 1228.26 1196.18 1193.68 1196.18L1189.99 1196.18C1189.47 1196.18 1189.12 1196.18 1188.76 1196.18Z" fill="#FFDB6E" fill-rule="evenodd" fill-opacity="1"/><path d="M1790.73 317.782 2033.8 419.847 2007.08 518.047 1747.5 408.78 1790.73 317.782ZM2599.01 657.706 2684.25 693.719 2642.25 786.298 2572.3 757.312C2573 754.15 2573 752.393 2573.53 751.164L2599.01 657.706ZM2754.2 723.232 2796.2 740.623C2807.98 745.542 2814.13 759.772 2808.51 772.069L2787.59 821.608C2783.9 830.919 2774.76 836.365 2765.27 836.365 2762.28 836.365 2759.12 835.838 2755.96 834.608L2712.19 815.987 2754.2 723.232ZM2159.81 317.606C2161.92 317.606 2164.03 317.957 2166.14 318.484L2170.36 319.714C2184.59 322.701 2193.91 337.633 2190.22 352.389L2186.52 368.551 2142.06 522.966C2135.21 543.52 2146.98 565.128 2167.37 571.276 2170.71 572.154 2174.22 572.681 2177.56 572.681 2194.61 572.681 2210.25 561.614 2215 544.047L2257.53 394.55C2262.8 388.226 2270.36 385.064 2278.09 385.064 2280.38 385.064 2282.66 385.24 2284.77 385.767L2288.46 386.469C2303.4 390.159 2312.01 404.388 2309.02 418.617L2269.3 552.655C2261.92 573.033 2273.7 595.343 2294.08 601.492 2297.77 602.546 2301.47 603.073 2305.16 603.073 2322.2 603.073 2337.67 591.654 2341.71 574.262L2378.8 450.063C2383.72 443.387 2391.45 439.171 2399.71 439.171 2401.99 439.171 2404.28 439.522 2406.56 440.225L2410.96 440.752C2425.19 444.617 2434.51 458.846 2430.82 473.603L2425.19 497.67 2393.03 600.965C2385.65 621.342 2396.72 643.653 2417.11 649.801 2421.15 651.031 2425.02 651.558 2428.88 651.558 2445.76 651.558 2460.87 640.315 2465.44 623.802L2498.13 519.277 2498.13 518.047 2498.13 516.818C2500.77 503.994 2512.19 495.913 2524.84 495.913 2526.95 495.913 2528.89 496.089 2531 496.44L2534.69 497.67C2549.45 500.832 2558.76 515.061 2555.6 529.818L2499.36 732.543C2499.36 733.772 2498.83 735.705 2498.83 736.934 2498.83 738.691 2474.58 900.133 2378.8 948.97 2365.79 955.119 2357.71 968.118 2357.71 982.348L2357.71 1098.47 1997.94 1098.47 1997.94 916.822C1997.94 907.512 1994.78 898.904 1989.16 892.052 1987.93 890.823 1885.99 767.853 1903.92 663.328 1908.84 630.653 1916.22 597.802 1925.01 565.655L1993.55 594.816C1999.7 611.329 2014.29 619.41 2028.88 619.41 2044.87 619.41 2060.69 609.748 2065.96 590.951L2133.27 340.092 2133.27 338.862C2136.44 326.214 2147.68 317.606 2159.81 317.606ZM2411.66 1178.22 2411.66 1297.5 1928.7 1297.5 1928.7 1178.22ZM1771.58 231C1757.17 231 1743.46 239.081 1736.95 252.959L1662.08 410.536C1654 427.928 1659.62 447.603 1675.09 458.143 1680.01 461.833 1686.16 465.522 1692.49 467.981L1854.36 536.669C1843.28 573.735 1834.67 612.032 1829.05 651.031 1808.13 769.609 1892.85 893.282 1921.84 930.349L1921.84 1102.86 1890.38 1102.86C1869.29 1102.86 1852.6 1119.55 1852.6 1140.45L1852.6 2560.23C1852.6 2581.31 1869.29 2598 1890.38 2598L2449.27 2598C2470.36 2598 2487.06 2581.31 2487.06 2560.23L2487.06 1612.13C2488.29 1590.52 2470.89 1571.9 2449.27 1571.9 2427.65 1571.9 2410.43 1590.52 2411.66 1612.13L2411.66 2522.64 1928.7 2522.64 1928.7 1373.57 2411.66 1373.57 2411.66 1478.62C2410.43 1500.23 2427.65 1518.85 2449.27 1518.85 2470.89 1518.85 2488.29 1500.23 2487.06 1478.62L2487.06 1140.45C2487.06 1119.55 2470.36 1102.16 2449.27 1102.16L2433.28 1102.16 2433.28 1004.48C2497.6 961.97 2533.46 888.363 2552.61 830.919L2726.25 903.823C2739.08 909.268 2752.44 911.903 2765.45 911.903 2804.29 911.903 2841.2 889.066 2857.36 850.594L2878.45 801.23C2889 776.461 2889 749.231 2879.16 724.462 2869.14 699.868 2849.46 680.719 2825.2 670.706L2619.4 584.276 2628.71 549.668 2628.71 548.439C2641.54 492.751 2607.62 437.766 2551.91 424.766L2548.22 423.536C2540.49 421.779 2532.4 420.901 2524.49 420.901 2515.18 420.901 2505.86 422.131 2496.9 424.766 2483.89 396.307 2457.88 375.402 2427.65 367.848L2423.96 367.321C2415.88 365.565 2407.79 364.51 2399.71 364.51 2390.92 364.51 2382.14 365.565 2373.87 367.848 2372.64 364.862 2371.41 362.402 2369.48 359.943 2355.25 336.403 2332.4 319.714 2305.86 313.566L2302.17 312.863C2294.26 310.931 2286.53 309.877 2278.79 309.877 2272.47 309.877 2266.14 310.579 2260.16 311.633 2257.53 304.782 2254.54 298.634 2250.85 292.485 2236.61 268.945 2213.77 252.256 2187.05 246.108L2183.36 245.581C2175.45 243.648 2167.37 242.77 2159.46 242.77 2113.24 242.77 2071.41 273.864 2059.81 320.944L2052.95 346.241 1785.81 233.811C1781.07 231.878 1776.32 231 1771.58 231Z" fill="#FFDB6E" fill-rule="evenodd" fill-opacity="1"/><path d="M1517.46 215C1484.58 215 1467.18 255.848 1491.79 279.867L1670.59 453.78C1677.45 460.617 1686.59 465 1697.14 465 1731.25 465 1747.95 423.626 1723.86 400.133L1618.02 297.223 1769.57 307.041C1770.63 307.216 1771.86 307.216 1772.91 307.216 1793.13 307.216 1810.36 291.788 1811.59 271.802 1812.82 250.238 1796.12 231.83 1774.5 231.129L1520.27 215.175C1519.22 215 1518.34 215 1517.46 215Z" fill="#FFDB6E" fill-rule="evenodd" fill-opacity="1"/></g></g></svg>