<svg width="1783" height="1499" xmlns="http://www.w3.org/2000/svg" xmlns:xlink="http://www.w3.org/1999/xlink" xml:space="preserve" overflow="hidden"><g transform="translate(-1196 -357)"><g><path d="M2087.7 1317 1225 1833 2950 1833 2087.7 1317Z" fill="#E8E5DE" fill-rule="evenodd" fill-opacity="0.0980392"/><path d="M2088.04 1317 1225 1833 1614.91 1833C1614.91 1833 2112.94 1345.39 2120 1342.24L2088.04 1317Z" fill="#ECEAE8" fill-rule="evenodd" fill-opacity="0.0980392"/><path d="M1753.98 589.213C1785.78 589.213 1811.6 610.855 1811.6 637.655L1811.6 684.639C1811.6 724.111 1773.14 756.406 1726.29 756.406 1679.05 756.406 1641.13 724.111 1641.13 684.639L1641.13 637.655C1641.13 610.855 1666.81 589.213 1698.22 589.213ZM1755.84 800.25 1755.84 801.82C1755.84 812.473 1758.63 823.126 1764.22 832.545L1727.23 863.382C1726.96 863.719 1726.69 863.943 1726.29 863.943 1725.9 863.943 1725.36 863.719 1724.96 863.382L1689.3 833.442C1693.96 826.714 1696.35 818.416 1696.35 810.455L1696.35 800.25ZM2061.52 1024.3 2061.52 1306.09 1891.18 1407.8 1891.18 1055.92C1906.08 1064.22 1922.98 1069.71 1940.82 1071.28 1944.94 1071.73 1949.2 1071.95 1953.46 1071.95 1956.39 1071.95 1959.45 1071.84 1962.37 1071.73 1983.8 1070.16 2004.96 1062.98 2021.73 1051.21L2061.52 1024.3ZM1647.25 859.794 1687.97 894.107C1698.48 903.078 1712.32 907.451 1726.03 907.451 1739.87 907.451 1753.71 903.078 1764.22 894.107L1801.22 862.934C1812.53 867.756 1824.64 870.447 1837.28 870.447 1837.68 870.447 1838.21 870.447 1838.61 870.447 1847.13 870.447 1855.38 873.923 1860.7 879.53L1937.09 960.379C1942.41 965.649 1950 968.341 1957.72 968.341 1963.44 968.341 1969.16 966.771 1973.95 963.631L2067.24 900.835C2072.96 896.574 2080.41 894.332 2087.73 894.332 2094.65 894.332 2101.57 896.238 2107.43 900.05 2121.54 910.367 2121 928.421 2106.5 938.288L1989.52 1017.23C1980.61 1023.17 1969.83 1027.1 1958.12 1027.88 1956.25 1028.11 1954.39 1028.22 1952.39 1028.22 1950.53 1028.22 1948.53 1028.11 1946.41 1027.88 1931.37 1026.31 1917.39 1020.03 1907.95 1009.72L1885.46 986.058C1880 980.339 1872.68 977.76 1865.36 977.76 1852.05 977.76 1839.14 986.394 1839.14 999.85L1839.14 1438.97 1779.66 1474.52 1779.66 1270.54C1778.99 1256.53 1766.48 1249.57 1753.84 1249.57 1741.33 1249.57 1728.69 1256.53 1727.76 1270.54L1727.76 1505.69 1640.59 1557.72 1640.59 1274.92C1640.59 1253.16 1635 1231.86 1623.29 1212.57L1597.08 1168.39C1589.62 1154.93 1585.37 1140.36 1585.37 1125.78L1585.37 900.835C1585.37 891.416 1591.89 882.67 1601.73 878.745L1647.25 859.794ZM2088 359C2075.36 359 2062.72 366.064 2062.05 380.081L2062.05 854.299C2052.2 857.103 2042.89 861.364 2034.37 866.971L1961.84 916.198 1901.43 852.281C1885.46 836.134 1862.17 826.714 1837.28 826.714 1820.91 826.714 1807.74 815.277 1807.74 801.82L1807.74 777.375C1842.87 755.621 1863.5 720.971 1863.5 684.639L1863.5 637.655C1863.5 586.746 1814.39 545.368 1753.98 545.368L1698.22 545.368C1637.8 545.368 1589.09 586.746 1589.09 637.655L1589.09 684.639C1589.09 720.971 1609.72 755.621 1644.85 777.375L1644.85 810.455C1644.32 810.903 1644.32 811.688 1643.39 811.688L1578.31 839.273C1550.77 850.711 1533.47 874.82 1533.47 900.835L1533.47 1125.33C1533.47 1147.08 1539.45 1168.39 1550.77 1187.68L1577.38 1231.86C1584.97 1245.31 1589.09 1259.89 1589.09 1274.47L1589.09 1588.89 1210.75 1814.96C1186.13 1828.41 1202.37 1855.89 1224.73 1855.89 1229.92 1855.89 1235.37 1854.43 1240.83 1850.95L2087.73 1344.33 2935.3 1850.95C2940.63 1854.43 2946.22 1855.89 2951.41 1855.89 2973.63 1855.89 2990 1828.41 2965.25 1814.96L2113.95 1306.09 2113.95 989.198 2138.84 972.714C2178.23 945.801 2179.56 896.126 2142.16 867.756 2134.18 861.364 2124.33 856.654 2113.95 853.851L2113.95 448.708 2463.28 448.708 2426.28 510.606C2422.56 516.549 2422.56 524.062 2426.28 530.342L2463.28 592.352 2199.25 592.352C2165.98 593.474 2165.98 634.964 2199.25 636.085L2505.46 636.085C2524.63 636.085 2537.27 619.153 2528.89 604.575L2478.72 520.474 2528.89 436.821C2537.27 421.908 2524.63 404.863 2505.46 404.863L2113.95 404.863 2113.95 380.081C2113.28 366.064 2100.64 359 2088 359Z" fill="#FFD56B" fill-rule="evenodd" fill-opacity="1"/><path d="M2225.54 1495C2203.27 1495 2187.13 1522.23 2211.8 1535.9L2465.19 1686.96C2470.52 1690.43 2476.12 1691.89 2481.33 1691.89 2503.6 1691.89 2520 1664.55 2495.2 1651.1L2241.81 1500.04C2236.34 1496.57 2230.88 1495 2225.54 1495Z" fill="#FFD56B" fill-rule="evenodd" fill-opacity="1"/><path d="M2086.59 1412C2064.37 1412 2048 1439.46 2072.75 1452.91L2127.97 1486.08C2132.9 1488.77 2137.95 1489.89 2142.61 1489.89 2164.43 1489.89 2180 1464.45 2158.44 1450.1L2102.69 1417.04C2097.37 1413.57 2091.78 1412 2086.59 1412Z" fill="#FFD56B" fill-rule="evenodd" fill-opacity="1"/></g></g></svg>