<svg width="2108" height="1976" xmlns="http://www.w3.org/2000/svg" xmlns:xlink="http://www.w3.org/1999/xlink" xml:space="preserve" overflow="hidden"><g transform="translate(-206 -36)"><g><path d="M1216.5 968.136C1190.84 968.136 1169.14 1000.88 1192.75 1025.3L1235.48 1068 1192.75 1110.7C1179.78 1123.66 1179.78 1144.81 1192.75 1157.77 1199.17 1164.18 1207.77 1167.45 1216.23 1167.45 1224.83 1167.45 1233.29 1164.18 1239.84 1157.77L1282.57 1115.07 1325.29 1157.77C1332.66 1164.86 1340.72 1167.86 1348.5 1167.86 1374.3 1167.86 1396 1134.98 1372.39 1110.7L1329.66 1068 1372.39 1025.3C1396 1000.88 1374.3 968.136 1348.5 968.136 1340.72 968.136 1332.66 971.138 1325.29 978.232L1282.57 1020.93 1239.84 978.232C1232.47 971.138 1224.28 968.136 1216.5 968.136Z" fill="#FFD56B" fill-rule="evenodd" fill-opacity="1"/><path d="M1258.93 423.137C1236.63 423.137 1213.92 431.329 1195.46 449.761 1138.14 506.969 1179.04 605 1259.89 605 1309.96 605 1350.86 564.176 1350.86 514.205 1350.86 459.455 1305.86 423.137 1258.93 423.137Z" fill="#F5F7F9" fill-rule="evenodd" fill-opacity="1"/><path d="M905.919 1344.43C994.43 1344.43 1038.82 1451.72 975.99 1514.19 955.638 1534.55 930.642 1543.71 906.056 1543.71 854.971 1543.71 805.798 1504.07 805.798 1443.93 806.344 1389.12 850.463 1344.43 905.782 1344.43L905.236 1344.43C905.509 1344.43 905.646 1344.43 905.919 1344.43ZM1745.82 924C1744.45 924 1742.95 924.547 1741.58 924.547L1741.04 924.547C1739.53 925.093 1738.58 925.093 1737.62 925.503L1736.66 926.05C1735.3 926.46 1733.8 927.007 1732.43 927.417L1643.92 971.702C1610.45 989.06 1627.53 1035.12 1658.26 1035.12 1663.04 1035.12 1668.37 1033.89 1673.7 1031.29L1697.33 1019.27C1654.03 1164.97 1578.08 1273.22 1472.36 1340.47 1367.46 1407.58 1250.95 1423.02 1166.26 1423.02 1124.6 1423.02 1090.59 1419.19 1069.69 1416.05 1058.76 1333.36 988.147 1272.13 905.919 1272.13 901.002 1272.13 896.221 1272.26 891.304 1272.67 802.929 1279.92 736.137 1355.5 739.551 1443.93 739.551 1528.13 802.383 1598.79 886.113 1608.91 892.533 1609.59 898.953 1610 905.236 1610 980.907 1610 1048.66 1558.33 1066.82 1482.89 1099.88 1487.26 1133.07 1489.58 1166.67 1489.58 1259.96 1489.58 1388.22 1471.82 1507.06 1396.37 1624.25 1321.74 1707.84 1205.43 1756.47 1050.02L1761.25 1059.72C1767.4 1071.34 1779.14 1078.04 1791.3 1078.04 1796.22 1078.04 1801.14 1076.95 1805.92 1074.62 1822.31 1066.42 1829 1046.74 1820.8 1029.93L1776.55 941.358 1776.55 940.948 1776.14 939.992C1775.59 939.035 1775.18 938.078 1774.23 936.985L1773.68 936.575C1772.31 934.114 1769.86 932.201 1767.94 930.287L1767.53 930.287C1766.03 929.877 1765.08 928.921 1763.57 927.964 1762.62 927.417 1761.25 927.007 1760.29 926.46L1758.79 926.05 1755.92 925.093 1754.97 925.093C1753.6 924.547 1752.51 924.547 1751.14 924Z" fill="#FFD56B" fill-rule="evenodd" fill-opacity="1"/><path d="M640.346 879C614.831 879 593.136 911.839 616.741 935.92L659.449 979.295 616.741 1022.12C603.779 1035.12 603.779 1056.33 616.741 1069.33 623.154 1075.76 631.75 1079.04 640.21 1079.04 648.67 1079.04 656.993 1075.76 663.269 1069.33L706.522 1025.95 749.23 1069.33C756.461 1076.85 764.648 1080 772.562 1080 798.486 1080 820.863 1046.07 796.303 1022.12L753.596 979.295 796.303 935.92C819.908 911.839 797.941 879 772.289 879 764.512 879 756.461 882.01 749.23 889.262L706.522 932.089 663.269 889.262C656.038 882.01 647.987 879 640.346 879Z" fill="#FFD56B" fill-rule="evenodd" fill-opacity="1"/><path d="M1923.25 1410C1915.48 1410 1907.57 1413 1900.2 1419.97L1857.5 1463.11 1814.8 1419.97C1808.25 1413.69 1799.8 1410.55 1791.2 1410.55 1782.74 1410.55 1774.28 1413.69 1767.74 1419.97 1754.78 1432.94 1754.78 1453.96 1767.74 1466.93L1810.44 1510.2 1767.74 1552.94C1744.14 1576.96 1765.96 1609.86 1791.75 1609.86 1799.52 1609.86 1807.57 1607 1814.8 1600.03L1857.5 1556.76 1900.2 1600.03C1907.57 1607 1915.48 1609.86 1923.25 1609.86 1949.04 1609.86 1970.86 1576.96 1947.26 1552.94L1904.56 1510.2 1947.26 1466.93C1970.86 1442.9 1949.04 1410 1923.25 1410Z" fill="#FFD56B" fill-rule="evenodd" fill-opacity="1"/><path d="M1320.45 104.891C1391.14 104.891 1447.77 161.543 1448.18 232.12L1448.18 308.976C1448.18 367.13 1495.25 414.636 1553.79 414.636L1585.59 414.636C1607.15 414.636 1624.89 432.519 1624.89 454.497L1624.89 662.951C1624.89 684.656 1607.15 702.402 1585.59 702.402L934.548 702.402C912.441 702.402 894.565 684.656 894.565 662.951L894.565 454.088 895.111 454.088C895.111 432.519 912.851 414.636 934.548 414.636L966.206 414.636C1024.2 414.226 1071.82 367.13 1071.82 308.976L1071.82 232.12C1071.82 161.543 1129 104.891 1199.55 104.891ZM2126.1 503.095C2191.46 503.095 2244.68 555.925 2244.68 621.724L2244.68 1823.03C2244.68 1888.83 2191.87 1942.06 2126.1 1942.06L393.901 1942.06C328.537 1942.06 275.319 1888.83 275.319 1823.44L275.319 621.724C275.319 555.925 328.537 503.095 393.901 503.095L828.383 503.095 828.383 613.533 419.282 613.533C400.996 613.533 386.123 628.413 386.123 647.115L386.123 1798.04C386.123 1816.2 400.996 1831.08 419.282 1831.08L1539.88 1831.08C1558.16 1831.08 1573.03 1816.2 1573.03 1798.04 1573.03 1779.21 1558.16 1764.33 1539.88 1764.33L452.441 1764.33 452.441 680.287 829.748 680.287C838.481 731.206 882.693 768.747 934.548 768.747L1585.59 768.747C1637.44 768.747 1681.52 731.206 1689.71 680.287L2067.56 680.287 2067.56 1764.87 1701.31 1764.87C1683.02 1764.87 1668.15 1779.75 1668.15 1798.04 1668.15 1816.2 1683.02 1831.08 1701.31 1831.08L2100.72 1831.08C2119 1831.08 2133.88 1816.2 2133.88 1798.04L2133.88 647.115C2133.88 628.413 2119 613.533 2100.72 613.533L1691.62 613.533 1691.62 503.095ZM1199.55 38.1367C1092.43 38.5462 1006.05 125.095 1005.51 232.12L1005.51 308.976C1005.51 330.681 987.766 348.428 966.206 348.428L934.548 348.428C882.693 348.428 838.481 385.422 829.748 436.751L393.901 436.751C291.557 436.751 209 519.34 209 621.724L209 1823.03C209 1925.27 291.557 2007.86 393.901 2007.86L2126.1 2007.86C2228.44 2007.86 2311 1925.27 2311 1823.03L2311 621.724C2311 519.34 2228.44 436.751 2126.1 436.751L1690.25 436.751C1681.52 385.422 1637.44 348.428 1585.59 347.882L1554.34 347.882C1532.23 347.882 1514.49 330.135 1514.49 308.566L1514.49 232.12C1514.49 125.095 1427.57 38.5462 1321 38.1367Z" fill="#FFD56B" fill-rule="evenodd" fill-opacity="1"/><path d="M1260.08 458.881C1309.52 458.881 1334.1 518.513 1299 553.253 1287.81 564.605 1273.88 569.803 1260.22 569.803 1231.95 569.803 1204.78 547.646 1204.78 514.273 1204.78 483.5 1229.36 458.881 1260.08 458.881ZM1260.63 392C1198.09 392 1138 440.69 1138 514.273 1138.55 581.565 1192.76 636 1260.08 636 1368.65 636 1423 504.563 1346.12 428.108 1321.26 403.215 1290.67 392 1260.63 392Z" fill="#FFD56B" fill-rule="evenodd" fill-opacity="1"/></g></g></svg>