<svg width="1489" height="1146" xmlns="http://www.w3.org/2000/svg" xmlns:xlink="http://www.w3.org/1999/xlink" xml:space="preserve" overflow="hidden"><g transform="translate(-802 -1031)"><g><path d="M1407 2031.11 1439.83 2083.03C1448.42 2096.6 1463.14 2105 1478.69 2105L1615.42 2105C1630.86 2105 1645.58 2096.6 1654.28 2083.03L1687 2031.11Z" fill="#87795D" fill-rule="evenodd" fill-opacity="1"/><path d="M1826.1 1372 1826.1 1445.35C1826.1 1472.08 1846.9 1493.89 1872.3 1493.89 1898.2 1493.89 1919 1472.08 1919 1445.35L1919 1372Z" fill="#7B7366" fill-rule="evenodd" fill-opacity="1"/><path d="M1849.8 1250C1823.95 1250 1803.1 1271.83 1803.1 1299.01L1803.1 1347.91C1803.1 1388.26 1834.37 1421 1872.8 1421 1911.63 1421 1943 1388.26 1943 1347.59L1943 1299.01C1943 1271.83 1922.05 1250 1896.2 1250Z" fill="#C6C1BA" fill-rule="evenodd" fill-opacity="1"/><path d="M1849.1 1250C1823.5 1250 1802.61 1271.82 1802.61 1298.98L1802.61 1347.53C1802 1389.35 1834.87 1420.89 1871.83 1420.89 1879.72 1420.89 1887.91 1419.5 1895.9 1416.4 1867.84 1406.24 1849.41 1378.76 1849.1 1347.53L1849.1 1298.98C1849.1 1271.82 1869.99 1250 1895.9 1250Z" fill="#7B7366" fill-rule="evenodd" fill-opacity="1"/><path d="M1849.5 1250C1823.95 1250 1803.1 1271.9 1803.1 1299.17 1848.37 1313.12 1895.48 1321.07 1943 1322.89L1943 1299.17C1943 1271.9 1922.05 1250 1896.2 1250Z" fill="#C6C1BA" fill-rule="evenodd" fill-opacity="1"/><path d="M1849.35 1250C1823.88 1250 1803.1 1271.79 1803.1 1298.93 1818.18 1303.84 1833.86 1307.9 1849.35 1310.89L1849.35 1298.93C1849.35 1271.79 1870.13 1250 1895.9 1250Z" fill="#7B7366" fill-rule="evenodd" fill-opacity="1"/><path d="M1826.1 1763.11 1826.1 1836.46C1826.1 1863.19 1846.9 1885 1872.3 1885 1898.2 1885 1919 1863.19 1919 1836.46L1919 1763.11Z" fill="#BAB09B" fill-rule="evenodd" fill-opacity="1"/><path d="M1849.8 1641C1823.95 1641 1803.1 1662.83 1803.1 1689.9L1803.1 1738.48C1803.1 1779.15 1834.37 1811.89 1872.8 1811.89 1911.63 1811.89 1943 1779.15 1943 1738.48L1943 1689.9C1943 1662.83 1922.05 1641 1896.2 1641Z" fill="#D1CABC" fill-rule="evenodd" fill-opacity="1"/><path d="M1849.1 1641C1823.5 1641 1802.61 1662.82 1802.61 1689.87L1802.61 1738.42C1802 1780.24 1834.87 1811.89 1871.83 1811.89 1879.72 1811.89 1887.91 1810.4 1895.9 1807.29 1867.84 1797.14 1849.41 1769.65 1849.1 1738.42L1849.1 1689.87C1849.1 1662.82 1869.99 1641 1895.9 1641Z" fill="#BAB09B" fill-rule="evenodd" fill-opacity="1"/><path d="M1849.5 1641C1823.95 1641 1803.1 1662.9 1803.1 1690.06 1848.37 1704.12 1895.48 1711.96 1943 1713.89L1943 1690.06C1943 1662.9 1922.05 1641 1896.2 1641Z" fill="#D1CABC" fill-rule="evenodd" fill-opacity="1"/><path d="M1849.35 1641C1823.88 1641 1803.1 1662.83 1803.1 1689.91 1818.18 1694.83 1833.86 1699 1849.35 1702L1849.35 1689.91C1849.35 1662.83 1870.13 1641 1895.9 1641Z" fill="#BAB09B" fill-rule="evenodd" fill-opacity="1"/><path d="M1267.1 1470 1267.1 1567.37C1267.1 1594.09 1287.88 1615.89 1313.65 1615.89 1339.12 1615.89 1359.9 1594.09 1359.9 1567.37L1359.9 1470Z" fill="#BAB09B" fill-rule="evenodd" fill-opacity="1"/><path d="M1290.21 1275C1251.32 1275 1220 1307.66 1220 1347.89L1220 1396.67C1220 1450.35 1261.86 1493.89 1313.65 1493.89 1365.14 1493.89 1406.9 1450.35 1406.9 1396.67L1406.9 1347.89C1406.9 1307.66 1375.58 1275 1336.68 1275Z" fill="#D9D6D1" fill-rule="evenodd" fill-opacity="1"/><path d="M1290.96 1275C1252.26 1275 1221.1 1307.79 1221.1 1348.19L1221.1 1397.16C1221.1 1453.31 1264.79 1494.89 1313.87 1494.89 1325.48 1494.89 1337.29 1492.64 1349 1487.61 1313.87 1472.6 1290.55 1436.7 1290.55 1397.16L1290.55 1348.19C1290.55 1312.29 1315.29 1281.75 1349 1276.18 1345.03 1275.43 1341.16 1275 1337.19 1275Z" fill="#BAB09B" fill-rule="evenodd" fill-opacity="1"/><path d="M1290.65 1275C1252.31 1275 1221.1 1307.55 1221.1 1347.64 1221.1 1347.64 1290.65 1371.89 1406.9 1371.89L1406.9 1347.64C1406.9 1307.55 1375.69 1275 1337.35 1275Z" fill="#D9D6D1" fill-rule="evenodd" fill-opacity="1"/><path d="M1290.96 1275C1252.26 1275 1221.1 1307.77 1221.1 1348.15 1244.01 1355.32 1267.33 1360.57 1290.96 1363.89L1290.96 1348.15 1290.55 1348.15C1290.55 1312.7 1315.29 1282.18 1349 1276.18 1345.03 1275.43 1341.16 1275 1337.19 1275Z" fill="#BAB09B" fill-rule="evenodd" fill-opacity="1"/><path d="M1337.39 1297.89C1363.65 1297.89 1385.21 1320.46 1385.21 1347.94L1385.21 1396.81C1385.21 1437.88 1353.23 1471.35 1314 1471.35 1274.46 1471.35 1242.48 1437.88 1242.48 1396.81L1242.48 1347.94C1242.48 1320.46 1264.04 1297.89 1290.6 1297.89ZM1896.38 1273.41C1910.07 1273.41 1921.2 1285.06 1921.2 1299.39L1921.2 1372.32C1921.2 1381.74 1916.5 1390.08 1908.64 1394.57 1902.1 1398.74 1897.81 1406.22 1897.81 1414.46L1897.81 1451.03C1897.81 1461.51 1904.65 1470.6 1914.36 1473.17L1972.29 1488.25C1983.43 1491.24 1990.89 1501.4 1990.89 1513.48L1990.89 1520.22 1755.07 1520.22 1755.07 1513.48C1755.07 1501.4 1763.04 1491.24 1773.77 1488.25L1831.7 1473.17C1841.41 1470.6 1848.25 1461.51 1848.25 1451.03L1848.25 1414.46C1848.25 1406.22 1844.27 1398.74 1837.42 1394.89 1829.86 1390.08 1824.86 1381.74 1824.86 1372.32L1824.86 1299.39C1824.86 1285.06 1835.99 1273.41 1849.68 1273.41ZM1662.4 1175.56 2084.37 1175.98 2084.37 1520.22 2034.82 1520.22 2034.82 1513.48C2034.82 1480.76 2013.57 1451.78 1983.02 1443.87L1941.64 1433.28 1941.64 1426.12C1956.45 1412.64 1965.04 1393.07 1965.04 1372.32L1965.04 1299.39C1965.04 1259.82 1934.49 1227.85 1896.79 1227.85L1849.99 1227.85C1812.29 1227.85 1781.74 1259.82 1781.74 1299.39L1781.74 1372.32C1781.74 1393.07 1790.02 1412.64 1804.73 1426.12L1804.73 1433.28 1763.35 1443.87C1732.8 1451.78 1711.65 1480.76 1711.65 1513.48L1711.65 1520.22 1662.4 1520.22 1662.4 1175.56ZM1338.82 1517.23 1338.82 1528.14C1338.82 1536.37 1340.97 1544.71 1344.96 1551.88L1315.12 1583.1C1314.71 1583.21 1314.3 1583.32 1313.9 1583.32 1313.49 1583.32 1313.08 1583.21 1312.98 1583.1L1283.14 1551.88C1287.02 1544.71 1289.17 1536.37 1289.17 1528.14L1289.17 1517.23ZM1381.64 1577.76 1424.75 1595.08C1443.04 1602.67 1455.3 1621.49 1455.3 1642.13L1455.3 1787.04C1455.3 1801.26 1444.16 1812.91 1430.47 1812.91L1335.96 1812.91 1335.96 1785.54 1384.09 1785.54C1395.94 1785.54 1405.65 1775.38 1405.65 1762.55L1405.65 1689.51C1405.65 1674.32 1394.82 1666.73 1383.98 1666.73 1373.05 1666.73 1362.22 1674.32 1362.22 1689.51L1362.22 1739.98 1265.87 1739.98 1265.87 1689.51C1265.87 1674.32 1254.94 1666.73 1244.11 1666.73 1233.18 1666.73 1222.35 1674.32 1222.35 1689.51L1222.35 1762.97C1222.35 1775.38 1232.06 1785.54 1244.32 1785.54L1292.13 1785.54 1292.13 1812.91 1197.52 1812.91C1183.83 1812.91 1172.69 1801.26 1172.69 1787.04L1172.69 1642.13 1172.39 1642.13C1172.39 1621.49 1184.65 1602.67 1203.24 1595.08L1246.05 1577.76 1282.02 1615.4C1290.8 1624.59 1302.35 1629.3 1313.79 1629.3 1325.34 1629.3 1336.88 1624.59 1345.67 1615.4L1381.64 1577.76ZM1618.16 1809.92 1618.16 1910.76 1009.53 1910.76 1009.53 1809.92 1132.44 1809.92C1141.84 1838.9 1168.1 1858.9 1197.21 1858.9L1430.17 1858.9C1459.59 1858.9 1485.44 1838.9 1495.15 1809.92ZM1896.38 1663.63C1910.07 1663.63 1921.2 1675.28 1921.2 1689.51L1921.2 1762.97C1920.8 1771.96 1916.2 1780.62 1908.64 1785.11 1901.79 1789.28 1897.81 1796.77 1897.81 1804.68L1897.81 1841.15C1897.81 1851.73 1904.65 1860.72 1914.36 1863.39L1972.29 1878.79C1983.02 1881.46 1990.89 1891.94 1990.89 1903.6L1990.89 1910.76 1755.07 1910.76 1755.07 1903.6C1754.77 1891.94 1762.63 1881.46 1773.77 1878.79L1831.7 1863.39C1841.41 1860.72 1848.25 1851.73 1848.25 1841.15L1848.25 1804.68C1848.25 1796.77 1843.86 1789.28 1837.42 1785.11 1829.56 1780.62 1824.86 1771.96 1824.86 1762.97L1824.86 1689.51C1824.86 1675.28 1835.99 1663.63 1849.68 1663.63ZM2084.37 1566.1 2084.37 1910.44 2034.41 1910.76 2034.41 1903.6C2034.41 1870.88 2013.26 1842.32 1982.71 1834.41L1941.33 1823.5 1941.33 1816.34C1956.04 1802.76 1964.73 1783.29 1964.73 1762.97L1964.73 1689.51C1964.73 1650.05 1934.18 1618.07 1896.38 1618.07L1849.68 1618.07C1811.88 1618.07 1781.33 1650.05 1781.33 1689.51L1781.33 1762.97C1781.33 1783.29 1790.02 1802.76 1804.73 1816.34L1804.73 1823.5 1763.35 1834.09C1732.8 1841.9 1711.24 1870.56 1711.24 1903.6L1711.24 1910.44 1661.99 1910.44 1661.99 1566.1ZM987.967 1130C975.706 1130 966 1140.16 966 1152.67L966 1933.01C966 1945.73 975.706 1955.89 987.967 1955.89L2105.93 1955.89C2117.78 1955.89 2127.9 1945.73 2127.9 1933.33L2127.9 1152.99C2127.9 1140.59 2118.19 1130 2105.93 1130L1150.83 1130C1121.71 1130 1121.71 1175.98 1150.83 1175.98L1618.16 1175.98 1618.16 1764.04 1498.83 1764.04 1498.83 1641.81C1498.42 1602.24 1475.43 1566.85 1440.18 1552.62L1382.66 1528.88C1382.35 1528.88 1382.35 1528.14 1382.35 1527.71L1382.35 1494.24 1382.35 1493.17C1411.78 1470.6 1429.04 1434.78 1429.04 1396.49L1429.04 1347.94C1429.04 1294.9 1387.66 1251.91 1337.39 1251.91L1290.6 1251.91C1239.92 1251.91 1198.95 1294.9 1198.95 1347.94L1198.95 1396.81C1198.95 1434.78 1216.22 1470.6 1245.75 1493.49L1245.75 1494.24 1245.75 1527.71C1245.75 1528.56 1245.34 1528.88 1245.34 1529.31L1187.81 1552.62C1152.57 1567.28 1129.58 1602.67 1129.27 1642.13L1129.27 1764.47 1009.93 1764.47 1009.93 1175.56 1057.65 1175.56C1069.6 1175.56 1079.61 1165.4 1079.61 1152.67 1079.61 1140.16 1069.6 1130 1057.65 1130Z" fill="#FFD56B" fill-rule="evenodd" fill-opacity="1"/><path d="M2152.56 1077.61C2166.15 1077.61 2177.39 1089.27 2177.39 1103.62L2177.39 2008.78 2129.16 2008.78C2100.04 2008.78 2100.04 2054.28 2129.16 2054.28L2245.64 2054.28C2246.35 2054.28 2247.07 2055.03 2247.07 2055.78L2247.07 2104.81C2247.07 2119.05 2235.93 2130.82 2222.24 2130.82L870.943 2130.82C857.354 2130.82 846.218 2119.05 846.218 2104.81L846.218 2055.78C846.218 2054.71 846.933 2053.96 847.955 2053.96L2036.09 2053.96C2047.94 2053.96 2057.64 2043.79 2057.64 2031.37 2057.64 2018.52 2047.94 2008.35 2036.09 2008.35L916.306 2008.35 916.306 1103.62C916.306 1089.27 927.443 1077.61 941.031 1077.61ZM941.031 1032C903.331 1032 872.782 1064.01 872.782 1103.62L872.782 2008.78 847.955 2008.78C823.127 2008.78 803 2029.44 803 2055.78L803 2104.38C803 2143.99 833.549 2176 871.352 2176L2222.65 2176C2260.35 2176 2290.9 2143.99 2290.9 2104.38L2290.9 2055.78C2290.9 2029.65 2271.18 2008.78 2246.35 2008.78 2246.05 2008.78 2245.84 2008.78 2245.64 2008.78L2220.81 2008.78 2220.81 1103.62C2220.81 1064.01 2190.26 1032 2152.56 1032Z" fill="#FFD56B" fill-rule="evenodd" fill-opacity="1"/></g></g></svg>