<svg width="46" height="30" viewBox="0 0 46 30" fill="none" xmlns="http://www.w3.org/2000/svg">
<g clip-path="url(#clip0_634_45)">
<path d="M16.6506 27.9793C17.8609 27.7329 18.9129 27.2751 19.8031 26.6049C20.5912 26.0228 21.2516 25.3049 21.7793 24.4506C22.607 23.1599 23.0208 21.7061 23.0208 20.0814C23.0208 18.4566 22.6583 17.1709 21.9349 16.0686C21.2098 14.9657 20.1355 14.1602 18.7115 13.6515C19.6486 13.1816 20.3581 12.6614 20.8405 12.0914C21.7006 11.0772 22.1329 9.73124 22.1329 8.05888C22.1329 6.38652 21.7045 5.04217 20.8511 3.87798C19.4322 1.9833 17.0215 1.01077 13.6208 0.960938H0.13562V28.3517H12.7083C14.1244 28.3517 15.4408 28.2274 16.6506 27.9793ZM5.70047 5.71791H11.7707C13.1071 5.71791 14.2059 5.85973 15.0676 6.14613C16.0677 6.55409 16.5669 7.39629 16.5669 8.67274C16.5669 9.82488 16.1882 10.6277 15.4319 11.0794C14.6778 11.5312 13.6933 11.7573 12.4807 11.7573H5.69992V5.71736L5.70047 5.71791ZM5.70047 23.5947V16.2931H12.5672C13.7675 16.3051 14.6945 16.459 15.3566 16.7569C16.5407 17.2892 17.1336 18.2672 17.1336 19.692C17.1336 21.3764 16.5223 22.5171 15.2997 23.1129C14.627 23.4354 13.6838 23.5953 12.4757 23.5953H5.70047V23.5947Z" fill="black"/>
<path d="M27.7458 26.5465C29.8441 28.209 32.267 29.0392 35.0124 29.0392C38.34 29.0392 40.9275 28.0551 42.7731 26.0843C43.9634 24.8446 44.6294 23.624 44.775 22.4236H39.267C38.9469 23.0178 38.5765 23.4816 38.1565 23.8162C37.3879 24.4361 36.39 24.7465 35.1613 24.7465C34.0022 24.7465 33.0116 24.4925 32.1884 23.9843C30.8336 23.1662 30.114 21.7419 30.0304 19.7092H45.0561C45.0829 17.9613 45.0232 16.6208 44.8787 15.6904C44.6283 14.1018 44.08 12.706 43.2344 11.5035C42.299 10.1394 41.1093 9.13896 39.6686 8.50648C38.2318 7.87401 36.6137 7.55859 34.8171 7.55859C31.7951 7.55859 29.3354 8.49444 27.4407 10.3672C25.5459 12.2378 24.5983 14.9287 24.5983 18.4371C24.5983 22.1822 25.648 24.8851 27.7463 26.547L27.7458 26.5465ZM31.5994 13.0811C32.363 12.3106 33.435 11.9251 34.8188 11.9251C36.0922 11.9251 37.1598 12.2893 38.0198 13.0154C38.8799 13.7431 39.359 14.8115 39.4567 16.2161H30.1626C30.3583 14.898 30.8375 13.8532 31.5994 13.0811Z" fill="black"/>
<path d="M40.528 2.53516H28.4038V5.29942H40.528V2.53516Z" fill="black"/>
</g>
<defs>
<clipPath id="clip0_634_45">
<rect width="44.9266" height="28.0791" fill="white" transform="translate(0.13562 0.960938)"/>
</clipPath>
</defs>
</svg>
