<?xml version="1.0" encoding="utf-8"?>
<!-- Generator: Adobe Illustrator 27.9.0, SVG Export Plug-In . SVG Version: 6.00 Build 0)  -->
<svg version="1.1" id="Livello_1" xmlns="http://www.w3.org/2000/svg" xmlns:xlink="http://www.w3.org/1999/xlink" x="0px" y="0px"
	 viewBox="0 0 142 142" style="enable-background:new 0 0 142 142;" xml:space="preserve">
<style type="text/css">
	.st0{clip-path:url(#SVGID_00000051369276762394330720000006587724112654520502_);}
	.st1{fill:#5CAAFF;}
</style>
<g>
	<defs>
		<rect id="SVGID_1_" y="0" width="142" height="142"/>
	</defs>
	<clipPath id="SVGID_00000131339324908404650030000000696254845758646689_">
		<use xlink:href="#SVGID_1_"  style="overflow:visible;"/>
	</clipPath>
	<g style="clip-path:url(#SVGID_00000131339324908404650030000000696254845758646689_);">
		<path class="st1" d="M71,142c39.2,0,71-31.8,71-71c0-39.2-31.8-71-71-71C31.8,0,0,31.8,0,71C0,110.2,31.8,142,71,142z"/>
		<path d="M76.2,12.4l3.4,0.5c0.8,0.1,1.5,0.4,2.1,0.7c0.6,0.3,1.1,0.8,1.5,1.3c0.4,0.5,0.6,1.1,0.8,1.8c0.1,0.7,0.2,1.4,0,2.2
			c-0.1,0.8-0.4,1.5-0.7,2.1c-0.3,0.6-0.8,1.1-1.3,1.4c-0.5,0.4-1.1,0.6-1.8,0.7c-0.7,0.1-1.4,0.1-2.2,0l-3.4-0.5L76.2,12.4
			L76.2,12.4z M78.1,22c1.2,0.2,2.2,0,3-0.6c0.8-0.6,1.2-1.5,1.5-2.8c0.2-1.3,0-2.3-0.5-3.1c-0.5-0.8-1.4-1.3-2.7-1.5l-2.1-0.3
			l-1.3,8L78.1,22z"/>
		<path d="M85.4,24.8l-1.3-0.4l2.9-9.8l1.3,0.4L85.4,24.8z"/>
		<path d="M93.8,22c0.4,0.3,0.7,0.5,1,0.8c0.3,0.3,0.5,0.6,0.6,0.9c0.1,0.3,0.2,0.6,0.2,1c0,0.4-0.1,0.8-0.3,1.2
			c-0.4,0.8-1,1.3-1.8,1.5c-0.9,0.2-1.8,0-3-0.4c-0.5-0.2-0.9-0.5-1.3-0.8s-0.7-0.7-1-1.1c-0.3-0.4-0.5-0.9-0.6-1.3
			c-0.1-0.5-0.1-1,0.1-1.5l1.2,0.2c-0.1,0.3-0.1,0.6,0,1c0,0.3,0.2,0.7,0.3,1c0.2,0.3,0.4,0.6,0.7,0.9c0.3,0.3,0.7,0.5,1.1,0.7
			c0.3,0.2,0.7,0.2,1,0.3c0.3,0,0.6,0,0.9,0c0.3-0.1,0.5-0.2,0.7-0.3c0.2-0.1,0.4-0.3,0.5-0.5c0.2-0.4,0.2-0.9,0-1.2
			c-0.2-0.4-0.6-0.8-1.2-1.2l-1.7-1.2c-0.8-0.5-1.3-1.1-1.5-1.7c-0.2-0.6-0.2-1.2,0.1-1.9c0.2-0.4,0.4-0.8,0.8-1
			c0.3-0.3,0.7-0.4,1.1-0.5c0.4-0.1,0.9-0.1,1.4,0c0.5,0.1,1,0.2,1.5,0.5c0.4,0.2,0.8,0.4,1.2,0.7c0.3,0.3,0.6,0.6,0.9,0.9
			c0.2,0.3,0.4,0.7,0.5,1.1c0.1,0.4,0.1,0.9,0,1.4L95.9,21c0.1-0.7,0-1.3-0.3-1.7c-0.3-0.5-0.8-0.9-1.6-1.2
			c-0.7-0.3-1.4-0.4-1.9-0.3c-0.5,0.1-0.9,0.4-1.1,0.9c-0.1,0.3-0.1,0.5-0.1,0.7c0.1,0.2,0.2,0.5,0.3,0.7c0.2,0.2,0.3,0.4,0.5,0.5
			c0.2,0.2,0.4,0.3,0.5,0.4L93.8,22L93.8,22z"/>
		<path d="M99.4,30.7c0.7,0.5,1.4,0.7,2.2,0.7c0.7,0,1.4-0.3,2.1-0.8l0.9,1c-0.4,0.3-0.8,0.6-1.3,0.8c-0.5,0.2-0.9,0.3-1.4,0.3
			c-0.5,0-1-0.1-1.5-0.2c-0.5-0.2-1-0.4-1.4-0.7c-0.5-0.4-1-0.8-1.3-1.4c-0.4-0.5-0.6-1.1-0.8-1.8c-0.1-0.6-0.1-1.3,0-2
			c0.1-0.7,0.4-1.4,1-2.1c0.5-0.7,1.1-1.3,1.7-1.6c0.6-0.4,1.3-0.6,1.9-0.7c0.7-0.1,1.3,0,1.9,0.1c0.6,0.2,1.2,0.4,1.7,0.8
			c0.5,0.3,0.8,0.7,1.2,1.1c0.3,0.4,0.6,0.9,0.7,1.3c0.2,0.5,0.2,0.9,0.2,1.4s-0.1,1-0.3,1.5l-1.3-0.5c0.3-0.8,0.3-1.6,0.1-2.3
			c-0.2-0.7-0.7-1.3-1.4-1.8c-0.4-0.3-0.9-0.5-1.4-0.6c-0.5-0.1-0.9-0.1-1.4,0c-0.5,0.1-0.9,0.3-1.3,0.7c-0.4,0.3-0.8,0.8-1.2,1.3
			c-0.4,0.5-0.6,1.1-0.8,1.6c-0.2,0.5-0.2,1-0.2,1.5c0,0.5,0.2,0.9,0.4,1.3C98.6,30,98.9,30.4,99.4,30.7L99.4,30.7z"/>
		<path d="M114.1,31c0.5,0.5,0.8,1.1,1,1.7c0.2,0.6,0.3,1.2,0.3,1.9c0,0.6-0.2,1.3-0.5,1.9c-0.3,0.6-0.8,1.2-1.3,1.8
			c-0.6,0.5-1.2,0.9-1.8,1.2c-0.7,0.3-1.3,0.4-1.9,0.4c-0.6,0-1.3-0.1-1.9-0.4c-0.6-0.3-1.1-0.6-1.6-1.2c-0.5-0.5-0.8-1.1-1-1.7
			c-0.2-0.6-0.3-1.2-0.3-1.9c0-0.6,0.2-1.3,0.5-1.9c0.3-0.6,0.7-1.2,1.3-1.7c0.6-0.5,1.2-0.9,1.9-1.2c0.7-0.3,1.3-0.4,1.9-0.4
			c0.6,0,1.3,0.1,1.9,0.4C113.1,30.1,113.6,30.5,114.1,31L114.1,31z M107.1,37.4c0.4,0.4,0.8,0.7,1.2,0.9c0.4,0.2,0.9,0.3,1.4,0.2
			c0.5,0,1-0.1,1.5-0.4c0.5-0.2,1-0.6,1.5-1c0.5-0.4,0.9-0.9,1.1-1.4c0.3-0.5,0.4-0.9,0.5-1.4c0.1-0.5,0-0.9-0.1-1.4
			c-0.2-0.4-0.4-0.9-0.8-1.3c-0.4-0.4-0.8-0.7-1.2-0.9c-0.4-0.2-0.9-0.3-1.4-0.2c-0.5,0-1,0.2-1.4,0.4c-0.5,0.2-1,0.6-1.5,1
			c-0.5,0.4-0.9,0.9-1.1,1.4c-0.3,0.5-0.4,0.9-0.5,1.4c-0.1,0.5,0,0.9,0.1,1.4C106.5,36.6,106.7,37,107.1,37.4L107.1,37.4z"/>
		<path d="M123.3,44.2l-10.8,2l-0.8-1.3l6.6-8.8l0.7,1.2l-5.9,7.6l0,0.1l9.4-1.8L123.3,44.2L123.3,44.2z"/>
		<path d="M118.6,57l-1,0.4l-2.5-6.7l9.6-3.6l2.5,6.6l-1,0.4l-2-5.3l-3.2,1.2l1.8,4.7l-1,0.4l-1.7-4.7l-3.4,1.3L118.6,57L118.6,57z"
			/>
		<path d="M119.7,65.9c-0.2,0-0.4,0.1-0.5,0.3l-0.2-1.4c0.1-0.1,0.3-0.2,0.5-0.3l1.9-0.3c0.7-0.1,1.2-0.4,1.4-0.8
			c0.2-0.4,0.2-1.1,0.1-1.9l-0.5-2.5l-4.4,0.8l-0.2-1.3l10.1-1.8l0.8,4.3c0.1,0.4,0.1,0.9,0.1,1.3c0,0.4-0.1,0.9-0.3,1.2
			c-0.2,0.4-0.4,0.7-0.7,1c-0.3,0.3-0.8,0.5-1.3,0.6c-0.4,0.1-0.8,0.1-1.1,0c-0.3-0.1-0.6-0.2-0.8-0.4c-0.2-0.2-0.4-0.3-0.5-0.5
			c-0.1-0.2-0.2-0.4-0.3-0.5c0,0.6-0.2,1-0.6,1.3s-0.9,0.5-1.7,0.7L119.7,65.9L119.7,65.9z M124,61.9c0.1,0.7,0.4,1.1,0.7,1.4
			c0.4,0.3,0.9,0.4,1.5,0.3c0.6-0.1,1.1-0.4,1.3-0.8c0.2-0.4,0.3-1,0.2-1.6l-0.6-3.1l-3.7,0.7L124,61.9z"/>
		<path d="M129.6,75.4c-0.1,0.7-0.2,1.3-0.5,1.9c-0.3,0.6-0.7,1.1-1.2,1.5c-0.5,0.4-1.1,0.7-1.8,0.9c-0.7,0.2-1.4,0.3-2.2,0.2
			c-0.8-0.1-1.5-0.2-2.1-0.5c-0.6-0.3-1.2-0.7-1.6-1.2c-0.4-0.5-0.8-1-1-1.6c-0.2-0.6-0.3-1.3-0.2-2c0.1-0.7,0.2-1.3,0.5-1.9
			c0.3-0.6,0.7-1.1,1.2-1.5c0.5-0.4,1.1-0.7,1.7-0.9c0.7-0.2,1.4-0.3,2.2-0.2c0.8,0.1,1.5,0.2,2.2,0.5c0.6,0.3,1.2,0.7,1.6,1.2
			c0.4,0.5,0.8,1,1,1.6C129.6,74,129.6,74.7,129.6,75.4z M120.1,74.6c0,0.6,0,1.1,0.2,1.5c0.2,0.4,0.4,0.8,0.8,1.2
			c0.3,0.3,0.8,0.6,1.3,0.8c0.5,0.2,1.1,0.3,1.7,0.4c0.7,0,1.2,0,1.8-0.1c0.5-0.1,1-0.3,1.4-0.6c0.4-0.3,0.7-0.6,0.9-1.1
			c0.2-0.4,0.4-0.9,0.4-1.5c0-0.6,0-1.1-0.2-1.5c-0.2-0.4-0.4-0.8-0.8-1.2c-0.3-0.3-0.8-0.6-1.3-0.8c-0.5-0.2-1.1-0.3-1.7-0.4
			c-0.7,0-1.2,0-1.8,0.1c-0.5,0.1-1,0.3-1.4,0.6s-0.7,0.6-0.9,1.1C120.3,73.6,120.1,74.1,120.1,74.6L120.1,74.6z"/>
		<path d="M126.5,90l-1-0.3l0.9-3.6l-8.9-2.3l0.3-1.3l8.9,2.3l0.9-3.6l1,0.3L126.5,90L126.5,90z"/>
		<path d="M121.8,100.3l-9.2-4.5l0.6-1.2l4.2,2.1l2.6-5.3l-4.2-2.1l0.6-1.2l9.2,4.5l-0.6,1.2l-4-2l-2.6,5.3l4,2L121.8,100.3z"/>
		<path d="M108.4,103.4l-0.9-0.6l4.3-5.8l8.2,6.1l-4.2,5.6l-0.9-0.6l3.4-4.6l-2.7-2l-3,4l-0.9-0.6l3-4l-2.9-2.2L108.4,103.4z"/>
		<path d="M101.5,109.2c-0.1-0.2-0.3-0.2-0.5-0.2l1-0.9c0.2,0,0.3,0.1,0.5,0.3l1.3,1.4c0.5,0.5,1,0.8,1.5,0.8c0.5,0,1-0.4,1.7-1
			l1.9-1.8l-3-3.2l1-0.9l7,7.5l-3.2,3c-0.3,0.3-0.7,0.6-1.1,0.8c-0.4,0.2-0.8,0.4-1.2,0.4c-0.4,0.1-0.8,0-1.2-0.1
			c-0.4-0.1-0.8-0.4-1.2-0.8c-0.3-0.3-0.5-0.6-0.6-0.9c-0.1-0.3-0.1-0.6-0.1-0.9s0.1-0.5,0.2-0.7c0.1-0.2,0.2-0.4,0.3-0.5
			c-0.5,0.3-1,0.4-1.4,0.2c-0.4-0.1-0.9-0.5-1.5-1L101.5,109.2L101.5,109.2z M107.2,110.6c-0.5,0.5-0.8,0.9-0.8,1.4
			c0,0.5,0.1,0.9,0.6,1.4c0.4,0.5,0.9,0.7,1.4,0.7c0.5,0,1-0.3,1.4-0.7l2.3-2.2l-2.6-2.7L107.2,110.6z"/>
		<path d="M99,117c-0.4,0.2-0.9,0.3-1.2,0.4c-0.4,0.1-0.7,0.1-1.1,0c-0.3-0.1-0.6-0.2-0.9-0.4c-0.3-0.2-0.6-0.5-0.8-0.9
			c-0.5-0.8-0.6-1.5-0.3-2.4c0.3-0.8,1-1.6,2-2.2c0.4-0.3,0.9-0.5,1.4-0.7c0.5-0.2,1-0.2,1.5-0.2c0.5,0,1,0.1,1.4,0.3
			c0.5,0.2,0.9,0.5,1.2,0.9l-0.9,0.9c-0.2-0.2-0.5-0.4-0.8-0.6c-0.3-0.2-0.6-0.2-1-0.3c-0.4,0-0.8,0-1.2,0.1
			c-0.4,0.1-0.8,0.3-1.2,0.5c-0.3,0.2-0.6,0.4-0.8,0.7c-0.2,0.2-0.4,0.5-0.5,0.8c-0.1,0.3-0.2,0.5-0.1,0.8c0,0.3,0.1,0.5,0.2,0.7
			c0.3,0.4,0.6,0.6,1,0.7c0.4,0,1-0.1,1.7-0.3l1.9-0.8c0.9-0.4,1.6-0.5,2.3-0.3c0.6,0.1,1.1,0.5,1.5,1.1c0.2,0.4,0.4,0.8,0.4,1.2
			c0,0.4,0,0.8-0.2,1.2c-0.2,0.4-0.4,0.8-0.7,1.2c-0.3,0.4-0.7,0.7-1.2,1c-0.4,0.3-0.8,0.5-1.2,0.6c-0.4,0.1-0.8,0.2-1.2,0.2
			c-0.4,0-0.8-0.1-1.2-0.2c-0.4-0.2-0.8-0.4-1.2-0.8l0.9-0.9c0.5,0.5,1,0.7,1.6,0.8c0.6,0,1.2-0.2,1.9-0.7c0.7-0.4,1.1-0.9,1.3-1.4
			c0.2-0.5,0.2-1-0.1-1.5c-0.2-0.2-0.3-0.4-0.6-0.5c-0.2-0.1-0.5-0.1-0.7-0.1c-0.2,0-0.5,0.1-0.7,0.1c-0.2,0.1-0.4,0.1-0.6,0.2
			L99,117L99,117z"/>
		<path d="M89.4,126.5c-0.5,0.2-1,0.2-1.4,0.2c-0.4,0-0.9-0.1-1.2-0.3c-0.4-0.2-0.7-0.4-1-0.8c-0.3-0.3-0.5-0.7-0.7-1.2
			c-0.2-0.5-0.2-0.9-0.2-1.4c0-0.4,0.1-0.8,0.3-1.2c0.2-0.4,0.5-0.7,0.8-1c0.4-0.3,0.8-0.5,1.3-0.7l2.6-0.9l-1.2-3.5l1.2-0.4
			l3.3,9.7L89.4,126.5z M87.7,121.3c-0.6,0.2-1.1,0.6-1.3,1c-0.2,0.5-0.2,1,0,1.7c0.2,0.7,0.6,1.1,1,1.4c0.5,0.2,1,0.3,1.7,0
			l2.6-0.9l-1.4-4.1L87.7,121.3L87.7,121.3z"/>
		<path d="M74.5,119.7c0-0.2-0.1-0.4-0.3-0.5l1.4-0.2c0.1,0.1,0.2,0.3,0.2,0.5l0.3,1.9c0.1,0.7,0.4,1.2,0.8,1.5
			c0.4,0.2,1.1,0.3,1.9,0.2l2.5-0.4l-0.7-4.4l1.3-0.2l1.5,10.1l-4.3,0.6c-0.4,0.1-0.9,0.1-1.3,0c-0.4,0-0.9-0.1-1.2-0.3
			c-0.4-0.2-0.7-0.4-1-0.8c-0.3-0.3-0.4-0.8-0.5-1.3c-0.1-0.4,0-0.8,0-1.1c0.1-0.3,0.2-0.6,0.4-0.8c0.2-0.2,0.3-0.4,0.5-0.5
			c0.2-0.1,0.4-0.2,0.5-0.3c-0.6-0.1-1-0.3-1.3-0.6c-0.3-0.4-0.5-0.9-0.6-1.7L74.5,119.7L74.5,119.7z M78.4,124.1
			c-0.7,0.1-1.2,0.3-1.5,0.7c-0.3,0.4-0.4,0.9-0.3,1.5c0.1,0.7,0.4,1.1,0.8,1.3c0.4,0.2,0.9,0.3,1.6,0.2l3.1-0.5l-0.6-3.7
			L78.4,124.1z"/>
		<path d="M68.3,129.6c-0.7,0-1.3-0.2-1.9-0.5c-0.6-0.3-1.1-0.7-1.5-1.2c-0.4-0.5-0.7-1.1-1-1.7c-0.2-0.7-0.3-1.4-0.3-2.2
			c0-0.8,0.2-1.5,0.5-2.1c0.3-0.6,0.7-1.2,1.1-1.6c0.5-0.5,1-0.8,1.6-1c0.6-0.2,1.3-0.3,1.9-0.3c0.7,0,1.3,0.2,1.9,0.5
			c0.6,0.3,1.1,0.7,1.5,1.2c0.4,0.5,0.7,1.1,1,1.7c0.2,0.7,0.3,1.4,0.3,2.2c0,0.8-0.2,1.5-0.5,2.2c-0.3,0.6-0.7,1.2-1.1,1.6
			c-0.5,0.4-1,0.8-1.6,1C69.7,129.5,69,129.6,68.3,129.6L68.3,129.6z M68.8,120c-0.6,0-1.1,0-1.5,0.2c-0.4,0.2-0.8,0.4-1.2,0.8
			c-0.3,0.4-0.6,0.8-0.8,1.3c-0.2,0.5-0.3,1.1-0.3,1.7c0,0.6,0,1.2,0.2,1.8c0.1,0.5,0.4,1,0.6,1.3c0.3,0.4,0.6,0.7,1.1,0.9
			c0.4,0.2,0.9,0.3,1.5,0.4c0.6,0,1.1,0,1.5-0.2c0.4-0.2,0.8-0.4,1.2-0.8c0.3-0.4,0.6-0.8,0.8-1.3c0.2-0.5,0.3-1.1,0.3-1.7
			c0-0.6,0-1.2-0.2-1.8c-0.1-0.5-0.4-1-0.6-1.3c-0.3-0.4-0.6-0.7-1.1-0.9C69.8,120.2,69.3,120.1,68.8,120z"/>
		<path d="M55.7,127.4l-1.3-0.3l1.5-6.4c0.6-2.5,2.1-3.5,4.5-2.9c1,0.2,1.7,0.7,2.2,1.4c0.4,0.7,0.5,1.5,0.3,2.5l-1.3,0
			c0.2-0.8,0.1-1.4-0.1-1.9c-0.2-0.5-0.7-0.8-1.4-1c-0.9-0.2-1.5-0.1-1.9,0.2c-0.4,0.4-0.7,1-1,1.8L55.7,127.4L55.7,127.4z"/>
		<path d="M48.4,114.9l0.4-1l6.6,2.8l-4,9.5l-6.5-2.7l0.4-1l5.2,2.2l1.3-3.2l-4.6-1.9l0.4-1l4.6,2l1.4-3.3L48.4,114.9L48.4,114.9z"
			/>
		<path d="M43.9,112c-0.7-0.5-1.5-0.7-2.2-0.6c-0.7,0.1-1.4,0.4-2.1,0.9l-0.9-1c0.4-0.3,0.8-0.6,1.3-0.8c0.5-0.2,0.9-0.3,1.4-0.3
			c0.5,0,1,0,1.5,0.2c0.5,0.1,1,0.4,1.5,0.7c0.5,0.4,1,0.8,1.4,1.3c0.4,0.5,0.7,1.1,0.8,1.8c0.2,0.6,0.2,1.3,0.1,2
			c-0.1,0.7-0.4,1.4-0.9,2.2c-0.5,0.7-1,1.3-1.6,1.7c-0.6,0.4-1.2,0.7-1.9,0.8c-0.6,0.1-1.3,0.1-1.9-0.1c-0.6-0.1-1.2-0.4-1.8-0.8
			c-0.5-0.3-0.9-0.7-1.2-1.1c-0.3-0.4-0.6-0.8-0.8-1.3c-0.2-0.5-0.3-0.9-0.3-1.4c0-0.5,0.1-1,0.2-1.5l1.3,0.4
			c-0.2,0.8-0.2,1.6,0,2.3c0.2,0.7,0.7,1.3,1.5,1.8c0.5,0.3,0.9,0.5,1.4,0.6c0.5,0.1,0.9,0.1,1.4-0.1c0.5-0.1,0.9-0.4,1.3-0.7
			s0.8-0.8,1.2-1.3c0.4-0.5,0.6-1.1,0.7-1.6c0.1-0.5,0.2-1,0.1-1.5c-0.1-0.5-0.2-0.9-0.5-1.3C44.8,112.6,44.4,112.3,43.9,112
			L43.9,112z"/>
		<path d="M27.4,110.2l0.7-0.8l2.7,2.5l6.4-6.6l0.9,0.9l-6.3,6.6l2.7,2.5l-0.7,0.8L27.4,110.2L27.4,110.2z"/>
		<path d="M21,101.7c-0.4-0.6-0.6-1.2-0.7-1.9c-0.1-0.6-0.1-1.3,0.1-1.9c0.2-0.6,0.5-1.2,0.9-1.8s1-1.1,1.7-1.5
			c0.7-0.4,1.4-0.7,2-0.8c0.7-0.1,1.3-0.1,2,0c0.6,0.1,1.2,0.4,1.7,0.8c0.5,0.4,1,0.9,1.3,1.4c0.4,0.6,0.6,1.2,0.7,1.9
			c0.1,0.6,0.1,1.3-0.1,1.9c-0.2,0.6-0.5,1.2-0.9,1.8c-0.4,0.6-1,1-1.6,1.5c-0.7,0.4-1.4,0.7-2.1,0.8c-0.7,0.1-1.4,0.1-2,0
			c-0.6-0.1-1.2-0.4-1.7-0.8C21.8,102.8,21.4,102.3,21,101.7L21,101.7z M29.1,96.7c-0.3-0.5-0.6-0.8-1-1.1c-0.4-0.3-0.8-0.4-1.3-0.5
			c-0.5-0.1-1,0-1.5,0.1c-0.5,0.1-1.1,0.4-1.6,0.7c-0.6,0.3-1,0.7-1.4,1.1c-0.4,0.4-0.6,0.8-0.8,1.3c-0.1,0.5-0.2,0.9-0.1,1.4
			c0.1,0.5,0.2,0.9,0.5,1.4c0.3,0.5,0.6,0.8,1,1.1c0.4,0.3,0.8,0.4,1.3,0.5c0.5,0.1,1,0,1.5-0.1c0.5-0.1,1.1-0.4,1.6-0.7
			c0.6-0.3,1-0.7,1.4-1.1c0.4-0.4,0.6-0.8,0.8-1.3c0.2-0.4,0.2-0.9,0.1-1.4C29.6,97.6,29.4,97.2,29.1,96.7L29.1,96.7z"/>
		<path d="M23.4,85l-8.4,3l-0.4-1.2l9.7-3.5l0.7,1.9l-6.8,7.6l0,0.1l8.4-3l0.4,1.2l-9.7,3.5l-0.7-1.9L23.4,85L23.4,85z"/>
		<path d="M12.7,75.7c-0.1-1.2,0-2.1,0.5-2.7c0.4-0.6,1-0.9,1.8-1c1.1-0.1,2,0.4,2.5,1.5c0.1-0.6,0.3-1.1,0.7-1.5
			c0.4-0.4,0.9-0.6,1.5-0.6c0.9-0.1,1.6,0.2,2.1,0.7c0.6,0.5,0.9,1.4,1,2.4l0.4,4.9l-10.2,0.9L12.7,75.7L12.7,75.7z M17,77.9
			l-0.2-2.5c-0.1-0.6-0.2-1-0.5-1.2c-0.2-0.2-0.6-0.3-1-0.3c-0.4,0-0.7,0.2-0.9,0.4s-0.3,0.7-0.2,1.2l0.2,2.5L17,77.9L17,77.9z
			 M21.5,77.5l-0.2-2.4c-0.1-0.7-0.2-1.1-0.5-1.4c-0.3-0.3-0.7-0.4-1.2-0.4c-0.5,0-0.9,0.2-1.1,0.6c-0.2,0.4-0.3,0.9-0.2,1.7
			l0.2,2.2L21.5,77.5L21.5,77.5z"/>
		<path d="M21.7,62.6l1.6,0.1l-0.6,7.6l-10.2-0.9L13,62l1.6,0.1l-0.5,5.4l2.6,0.2l0.4-4.7l1.6,0.1l-0.4,4.7l2.8,0.2L21.7,62.6
			L21.7,62.6z"/>
		<path d="M16,50.4l9.9,2.8l-0.5,1.9l-4.2-1.2l-1.4,4.9l4.2,1.2L23.4,62l-9.9-2.8l0.5-1.9l4.1,1.2l1.4-5l-4.1-1.2L16,50.4z"/>
		<path d="M27.3,45.2l-2.1,4l1.7,1.9l-0.9,1.8l-7.2-8.4l1-1.9l11,1.2l-0.9,1.8L27.3,45.2L27.3,45.2z M25.6,45l-4.7-0.6l0,0.1L24,48
			L25.6,45z"/>
		<path d="M28.6,30.4l7.9,6.5l-1.9,2.3l-8.6-2.5l0,0l6.4,5.3L31,43.5L23.1,37l1.9-2.3l8.6,2.5l0,0l-6.4-5.3L28.6,30.4z"/>
		<path d="M40,32c0.6-0.5,0.9-1,1.1-1.6c0.2-0.6,0.1-1.2-0.1-1.9l1.8-0.8c0.2,0.5,0.3,1,0.4,1.5c0,0.5,0,1-0.2,1.5
			c-0.1,0.5-0.3,0.9-0.6,1.4c-0.3,0.4-0.7,0.8-1.1,1.2c-0.5,0.4-1.1,0.7-1.7,0.9c-0.6,0.2-1.3,0.3-2,0.3c-0.7,0-1.3-0.2-2-0.5
			c-0.7-0.3-1.3-0.8-1.8-1.5c-0.6-0.7-0.9-1.4-1.1-2.1c-0.2-0.7-0.2-1.4-0.1-2.1c0.1-0.7,0.3-1.3,0.7-1.9c0.4-0.6,0.8-1.1,1.3-1.5
			c0.5-0.4,0.9-0.6,1.4-0.8c0.5-0.2,1-0.3,1.5-0.3s1,0,1.5,0.2c0.5,0.1,0.9,0.4,1.4,0.7l-1.2,1.6c-0.6-0.4-1.2-0.5-1.8-0.5
			c-0.6,0-1.2,0.3-1.8,0.7c-0.4,0.3-0.7,0.7-0.9,1.1c-0.2,0.4-0.3,0.8-0.3,1.2c0,0.4,0.1,0.9,0.3,1.3c0.2,0.4,0.4,0.9,0.7,1.3
			c0.3,0.4,0.7,0.8,1.1,1c0.4,0.3,0.8,0.4,1.2,0.5c0.4,0.1,0.8,0.1,1.3,0S39.6,32.3,40,32L40,32z"/>
		<path d="M51.3,24.9l0.8,1.4l-6.7,3.5l-4.8-9.1l6.6-3.5l0.8,1.4l-4.8,2.5l1.2,2.3l4.2-2.2l0.8,1.4L45.1,25l1.3,2.5L51.3,24.9
			L51.3,24.9z"/>
		<path d="M54.5,20.1l14.2-2.6l0.2,1l-14.2,2.6L54.5,20.1z"/>
	</g>
</g>
</svg>
