<?xml version="1.0" encoding="utf-8"?>
<!-- Generator: Adobe Illustrator 28.0.0, SVG Export Plug-In . SVG Version: 6.00 Build 0)  -->
<svg version="1.1" id="Livello_1" xmlns="http://www.w3.org/2000/svg" xmlns:xlink="http://www.w3.org/1999/xlink" x="0px" y="0px"
	 viewBox="0 0 177 177" style="enable-background:new 0 0 177 177;" xml:space="preserve">
<style type="text/css">
	.st0{fill:#5CAAFF;}
	.st1{fill:#1D1D1B;}
</style>
<circle class="st0" cx="88.5" cy="88.5" r="88.5"/>
<path class="st1" d="M83.7,16.1l3.1-0.1c2.9-0.1,4.7,1.6,4.8,4.5c0.1,2.8-1.7,4.6-4.6,4.7l-3.1,0.1L83.7,16.1L83.7,16.1z M86.9,24.2
	c2.2,0,3.4-1.4,3.4-3.7S89,16.9,86.8,17h-1.9l0.2,7.2H86.9z M93.9,25.3l-1.2-0.1l0.6-9.1l1.2,0.1L93.9,25.3z M102.7,24
	c-0.2,1.6-1.7,2.4-3.9,2c-1.8-0.3-3.5-1.5-3.5-3.4l1.1-0.1c0,1.1,0.9,2.3,2.6,2.6c1.3,0.2,2.4-0.4,2.5-1.2c0.1-0.8-0.4-1.4-1.6-1.8
	l-1.7-0.6c-1.6-0.5-2.2-1.5-2-2.8c0.2-1.6,1.8-2.4,3.8-2.1c1.7,0.3,3,1.1,3.1,3l-1.1,0.1c-0.1-1.2-0.8-1.9-2.3-2.1
	c-1.4-0.2-2.3,0.3-2.5,1.2c-0.2,1,1.1,1.5,1.6,1.7l1.6,0.6C102.1,21.6,102.9,22.3,102.7,24L102.7,24z M111,25.6l1,0.6
	c-0.9,1.6-2.8,2.2-4.7,1.7c-2.2-0.6-3.9-2.9-3.1-5.8c0.9-3,3.5-3.9,5.7-3.2c1.9,0.6,3.1,2.1,3.1,4h-1.2c0-1.5-0.8-2.6-2.3-3
	c-1.9-0.6-3.5,0.5-4.1,2.7s0.1,3.9,2,4.5C108.9,27.4,110.2,26.9,111,25.6L111,25.6z M121.6,28.7c-1.2,2.6-3.7,3.5-6,2.4
	c-2.2-1-3.2-3.6-2-6.1c1.2-2.6,3.7-3.5,6-2.5C121.9,23.6,122.8,26.1,121.6,28.7L121.6,28.7z M120.5,28.1c1-2.1,0.5-3.9-1.3-4.7
	s-3.5,0-4.4,2.1c-1,2.1-0.5,3.9,1.3,4.7S119.5,30.2,120.5,28.1z M131.6,29.6l-7.9,5.8l-1.2-0.8l1.9-9.6l1,0.6l-1.8,8.3h0.1l6.8-5.1
	L131.6,29.6L131.6,29.6z M133.1,41.4l-0.6,0.7l-4.9-4.1l5.9-7l4.8,4l-0.6,0.7l-3.9-3.2l-1.9,2.3l3.4,2.9l-0.6,0.7l-3.4-2.9l-2.1,2.5
	L133.1,41.4L133.1,41.4z M138.1,48l-0.8-0.9c0-0.1,0.1-0.3,0.2-0.4l1.2-1.2c1-0.9,0.9-1.7-0.2-2.8l-1.6-1.7l-2.9,2.7l-0.8-0.9
	l6.7-6.2l2.6,2.8c1,1.1,1.7,2.8,0.3,4.1c-1.1,1-2.2,0.6-2.6,0.2c0.5,0.9,0.3,1.6-0.7,2.6l-1.2,1.1C138.2,47.7,138.1,47.9,138.1,48
	L138.1,48z M142.1,42.7c0.8-0.7,0.8-1.6,0-2.5l-1.9-2l-2.5,2.3l1.9,2C140.4,43.4,141.3,43.5,142.1,42.7L142.1,42.7z M148.8,55.4
	c-2.4,1.5-5,1-6.3-1.1s-0.8-4.7,1.6-6.2c2.4-1.6,5-1,6.4,1.1C151.7,51.2,151.1,53.8,148.8,55.4z M148.1,54.3c1.9-1.3,2.5-3,1.4-4.7
	c-1.1-1.6-2.9-1.9-4.8-0.6c-1.9,1.3-2.5,3-1.4,4.7C144.3,55.4,146.2,55.6,148.1,54.3z M156.3,60.5l-0.9,0.4L154,58l-7.3,3.6
	l-0.5-1.1l7.3-3.6l-1.4-2.9l0.9-0.4L156.3,60.5L156.3,60.5z M159.4,69.6l-8.7,2.9l-0.4-1.1l4-1.3l-1.6-4.9l-4,1.3l-0.4-1.1l8.7-2.9
	l0.4,1.1l-3.8,1.2l1.6,4.9l3.8-1.2L159.4,69.6z M153.3,79.9l-0.9,0.2l-1.2-6.3l8.9-1.7l1.2,6.1l-0.9,0.2l-1-5l-3,0.6l0.8,4.4
	l-0.9,0.2l-0.8-4.4l-3.2,0.6L153.3,79.9L153.3,79.9z M152.9,88.2l-0.1-1.2c0.1-0.1,0.3-0.2,0.5-0.2l1.7-0.1c1.3-0.1,1.7-0.7,1.6-2.3
	l-0.2-2.3l-3.9,0.3l-0.1-1.2l9.1-0.6l0.3,3.8c0.1,1.5-0.4,3.3-2.4,3.4c-1.5,0.1-2-1-2.2-1.5c-0.2,1-0.8,1.4-2.2,1.5l-1.7,0.1
	C153.2,88,153,88.1,152.9,88.2L152.9,88.2z M159.3,86.6c1.1-0.1,1.7-0.8,1.6-2l-0.2-2.8l-3.3,0.2l0.2,2.8
	C157.6,86.1,158.2,86.7,159.3,86.6z M154.9,96.5c-1.6-0.1-2.5-1.5-2.4-3.7c0.1-1.8,1.1-3.6,3.1-3.8l0.2,1.1
	c-1.1,0.1-2.2,1.2-2.3,2.9c-0.1,1.3,0.6,2.3,1.4,2.4c0.9,0,1.3-0.5,1.7-1.8l0.4-1.8c0.4-1.6,1.3-2.4,2.6-2.3
	c1.6,0.1,2.5,1.5,2.4,3.6c-0.1,1.7-0.8,3.1-2.7,3.4l-0.2-1.1c1.2-0.2,1.8-1,1.9-2.5c0.1-1.4-0.5-2.3-1.5-2.3c-1-0.1-1.4,1.2-1.5,1.8
	l-0.4,1.6C157.2,95.6,156.6,96.6,154.9,96.5L154.9,96.5z M156.6,107.7c-1.7-0.4-2.5-1.8-2.1-3.6l0.5-2.4l-3.2-0.7l0.3-1.1l8.9,2
	l-0.8,3.5C159.7,107.2,158.3,108.1,156.6,107.7z M156.8,106.5c1.2,0.3,2-0.2,2.3-1.4l0.5-2.3l-3.8-0.9l-0.5,2.3
	C155.1,105.4,155.6,106.2,156.8,106.5L156.8,106.5z M151.7,116.6c-2.6-1-3.8-3.4-2.9-5.7c0.8-2.3,3.3-3.5,5.9-2.5
	c2.7,1,3.8,3.4,2.9,5.7C156.8,116.4,154.4,117.6,151.7,116.6L151.7,116.6z M152.1,115.5c2.2,0.8,3.9,0.2,4.6-1.7
	c0.7-1.8-0.3-3.5-2.4-4.2c-2.2-0.8-3.9-0.2-4.6,1.7C149,113.1,150,114.7,152.1,115.5z M145.8,123.2c-1.4-0.7-1.7-2.4-0.6-4.3
	c0.9-1.6,2.5-2.8,4.4-2.2l-0.3,1c-1-0.4-2.5,0.1-3.3,1.6c-0.6,1.2-0.5,2.4,0.3,2.8s1.4,0.1,2.2-0.9l1.1-1.4c1-1.3,2.2-1.6,3.3-1
	c1.4,0.8,1.7,2.5,0.7,4.3c-0.8,1.5-2,2.4-3.8,2l0.3-1c1.2,0.3,2.1-0.1,2.7-1.4c0.7-1.2,0.5-2.3-0.3-2.7c-0.9-0.5-1.8,0.5-2.1,1
	l-1.1,1.3C148.3,123.4,147.3,124,145.8,123.2L145.8,123.2z M146.8,133.6l-0.8-0.5l1.9-2.7l-6.7-4.6l0.7-1l6.7,4.6l1.9-2.7l0.8,0.5
	L146.8,133.6z M135.2,134.5l-0.7-0.6l4.2-4.8l6.8,6.1l-4.1,4.6l-0.7-0.6l3.4-3.8l-2.3-2l-2.9,3.3l-0.7-0.6l2.9-3.3l-2.4-2.1
	L135.2,134.5L135.2,134.5z M128.4,139.3l0.9-0.8c0.1,0,0.3,0.1,0.4,0.3l1.1,1.3c0.9,1,1.6,0.9,2.8-0.1l1.7-1.5l-2.6-3l0.9-0.8l6,6.8
	l-2.9,2.5c-1.2,1-2.9,1.6-4.1,0.1c-1-1.1-0.5-2.2-0.2-2.7c-0.9,0.5-1.6,0.2-2.5-0.8l-1.1-1.2C128.7,139.3,128.6,139.3,128.4,139.3
	L128.4,139.3z M133.6,143.3c0.7,0.8,1.6,0.9,2.5,0l2.1-1.8L136,139l-2.1,1.8C133,141.6,132.9,142.5,133.6,143.3L133.6,143.3z
	 M123.1,145.8c-0.9-1.3-0.3-2.9,1.5-4.1c1.5-1,3.6-1.3,4.9,0.1l-0.7,0.8c-0.8-0.8-2.3-1.1-3.7-0.1c-1.1,0.8-1.5,1.9-1,2.6
	c0.5,0.7,1.2,0.8,2.4,0.2l1.7-0.7c1.5-0.7,2.7-0.4,3.4,0.6c0.9,1.3,0.3,2.9-1.4,4.1c-1.4,0.9-2.9,1.2-4.3-0.1l0.7-0.8
	c0.9,0.8,1.9,0.8,3.1,0c1.2-0.8,1.5-1.8,1-2.6c-0.6-0.8-1.8-0.4-2.3-0.1l-1.5,0.7C125.2,147.2,124.1,147.3,123.1,145.8L123.1,145.8z
	 M112.9,153.2c-1.2-2.6-0.2-5.1,2.1-6.1c2.2-1,4.8-0.1,5.9,2.5c1.2,2.6,0.2,5.1-2.1,6.1C116.6,156.7,114,155.7,112.9,153.2
	L112.9,153.2z M114,152.7c0.9,2.1,2.6,2.9,4.4,2.1c1.8-0.8,2.3-2.6,1.4-4.7c-0.9-2.1-2.6-2.9-4.4-2.1
	C113.6,148.8,113.1,150.6,114,152.7z M104.5,152.1l2.2,7.7l-1.1,0.3l-2.5-8.8l1.8-0.5l6.3,6.5h0.1l-2.2-7.7l1.1-0.3l2.5,8.8
	l-1.8,0.5L104.5,152.1L104.5,152.1L104.5,152.1z M92.3,161.9l-0.2-1.9l3-0.3l-0.7-7.1l2.2-0.2l0.7,7.1l3-0.3l0.2,1.9L92.3,161.9
	L92.3,161.9z M81.4,161.6l3.9-5.4l0.1-3.6l2.3,0.1l-0.1,3.6l3.4,5.6l-2.4-0.1l-2.2-3.5l-2.5,3.3L81.4,161.6L81.4,161.6z M72.9,157
	c0.3-1.9,1.9-2.8,3.8-2.5l1.9,0.3l0.5-2.8l2.2,0.4l-1.6,9l-3.9-0.7C74.7,160.4,72.4,159.7,72.9,157z M75.1,157.4
	c-0.1,0.7,0.2,1.2,1,1.3l1.8,0.3l0.4-2.2l-1.8-0.3C75.7,156.3,75.2,156.6,75.1,157.4L75.1,157.4z M63.5,152.6
	c0.8-2.6,3.4-3.9,5.9-3.1c2.7,0.9,3.8,3.4,3,5.9s-3.3,3.9-5.9,3.1C64,157.7,62.7,155.1,63.5,152.6L63.5,152.6z M65.7,153.3
	c-0.5,1.5,0,2.9,1.5,3.3c1.6,0.5,2.7-0.3,3.1-1.8c0.5-1.5,0.1-2.8-1.5-3.3C67.4,151,66.2,151.8,65.7,153.3z M60.6,151.2
	c0.7-1.4,0.5-2.8-1-3.6c-0.9-0.5-1.8-0.4-2.5,0.2l2.5,1.3l-0.9,1.7l-4.3-2.2l2.3-4.5l1.4,0.7l-0.4,1.1c0.8-0.6,1.8-0.6,2.9,0
	c2.3,1.3,3.2,3.9,2,6.3c-1.2,2.5-4,3.3-6.4,2.1c-1.8-0.9-2.9-2.6-2.6-4.6l0,0l2.1,0.4c-0.1,1,0.3,1.9,1.4,2.5
	C58.7,153.3,59.9,152.6,60.6,151.2L60.6,151.2z M49,139.5c0.1-0.2,0.1-0.3,0.1-0.5l1.9,1.3c0,0.1-0.1,0.3-0.2,0.4l-0.7,1
	c-0.5,0.7-0.2,1.4,0.6,2l1.4,0.9l1.7-2.4l1.9,1.3l-5.2,7.5l-3.9-2.7c-1.4-1-2.2-2.5-1.1-4c0.9-1.3,2.1-1.1,2.6-0.9
	c-0.7-0.8-0.7-1.5,0.1-2.7L49,139.5L49,139.5z M47.6,145.2c-0.3,0.4-0.3,0.9,0,1.3c0.1,0.1,0.2,0.2,0.3,0.3l1.8,1.3l1.2-1.7
	l-1.9-1.3c-0.1-0.1-0.3-0.1-0.4-0.2C48.2,144.7,47.9,144.8,47.6,145.2L47.6,145.2z M42.9,135.5l2.9,2.7l1.6-0.8l1.7,1.6l-9.1,4
	l-1.6-1.5l3.3-9.3l1.7,1.6L42.9,135.5L42.9,135.5z M42.1,137.3l-1.3,3.2l0,0l3.1-1.5L42.1,137.3L42.1,137.3z M32.3,129.8
	c1.5-1.2,3.3-0.9,4.5,0.6l1.2,1.5l2.2-1.8l1.4,1.7l-7.1,5.7l-2.5-3.1C31.3,133.6,30.1,131.5,32.3,129.8z M33.7,131.5
	c-0.6,0.5-0.6,1-0.1,1.7l1.1,1.4l1.7-1.4l-1.1-1.4C34.8,131.2,34.2,131.1,33.7,131.5L33.7,131.5z M24.3,123l7.8-4.7l1.2,1.9
	l-3.1,1.9l2.1,3.5l3.1-1.9l1.2,1.9l-7.8,4.7l-1.2-1.9l3-1.8l-2.1-3.5l-3,1.8L24.3,123z M30.8,115.2l1,2l-8.2,3.9l-1-2L30.8,115.2z
	 M24.8,109.3l-0.2-2.3c1.9-0.1,3.5,1,4.2,3c0.8,2.2,0.1,5.1-2.8,6.1c-2.9,1.1-5.3-0.7-6.1-2.9c-0.7-2-0.1-3.9,1.4-5l1.3,1.8
	c-0.8,0.6-1.1,1.6-0.8,2.6c0.5,1.5,1.9,1.9,3.4,1.3c1.5-0.5,2.3-1.6,1.8-3.2C26.7,109.8,25.8,109.3,24.8,109.3L24.8,109.3z
	 M19.8,99.2c1.9-0.4,3.3,0.7,3.7,2.6l0.4,1.9l2.8-0.6l0.5,2.2l-8.9,1.9l-0.8-3.9C17.2,102.2,17.1,99.8,19.8,99.2L19.8,99.2z
	 M20.3,101.5c-0.7,0.1-1,0.6-0.9,1.4l0.4,1.8l2.2-0.5l-0.4-1.8C21.5,101.7,21,101.3,20.3,101.5z M20.4,88.9c2.7-0.2,4.9,1.7,5,4.3
	c0.2,2.8-1.7,4.8-4.4,5s-4.8-1.6-5-4.4C15.8,91.3,17.7,89.1,20.4,88.9L20.4,88.9z M20.6,91.2C19,91.3,18,92.3,18,93.8
	c0.1,1.6,1.3,2.3,2.9,2.2c1.6-0.1,2.7-1,2.5-2.6C23.3,91.9,22.2,91.1,20.6,91.2L20.6,91.2z M20,82.3c0.4-1.5,1.2-2.8,3-2.6
	c1.8,0.1,2.7,1.8,2.5,4.3c-0.2,2.8-1.8,4-3.1,4.2L21.9,86c1-0.1,1.6-1.3,1.6-2.2c0.1-1.1-0.2-1.9-0.7-2c-0.5,0-0.6,0.3-0.8,1.2
	c-0.2,0.7-0.3,1.3-0.5,2c-0.6,2.4-1.9,2.8-2.9,2.7c-1.7-0.1-2.8-1.8-2.6-4.1c0.2-2,0.7-3.5,2.8-4l0.5,2.2c-0.9,0.2-1.2,0.7-1.3,2
	c-0.1,1.1,0.2,1.8,0.7,1.8s0.7-0.9,0.9-1.4C19.7,83.6,19.8,82.9,20,82.3L20,82.3z M18.5,69.7l1.9,0.4l-0.6,3l7,1.5l-0.5,2.2l-7-1.5
	l-0.6,3l-1.9-0.4L18.5,69.7z M28.2,63.4L30,64l-2.4,6.8l-8.6-3l2.3-6.6l1.8,0.6l-1.6,4.5l1.4,0.5l1.4-3.9l1.8,0.6l-1.4,3.9l1.7,0.6
	L28.2,63.4L28.2,63.4z M33.4,56.3c0.2,0.1,0.3,0.1,0.5,0l-1.1,2.1c-0.1,0-0.3,0-0.5-0.1l-1-0.5c-0.8-0.4-1.5,0-1.9,0.8L28.7,60
	l2.6,1.3l-1,2l-8.1-4.1l2.2-4.2c0.8-1.5,2.1-2.5,3.8-1.7c1.4,0.7,1.4,1.9,1.2,2.5c0.7-0.8,1.4-0.9,2.7-0.2L33.4,56.3L33.4,56.3z
	 M27.5,55.6c-0.4-0.2-0.9-0.2-1.2,0.2c-0.1,0.1-0.2,0.2-0.2,0.4l-1,2l1.9,1l1-2c0.1-0.1,0.1-0.3,0.1-0.4
	C28.2,56.2,28,55.8,27.5,55.6L27.5,55.6z M32.8,48.3c1.1-1.1,2.4-1.8,3.9-0.8c1.4,1,1.4,2.9,0,5c-1.6,2.3-3.5,2.6-4.8,2.1l0.7-2.1
	c0.9,0.4,2-0.3,2.5-1.1c0.6-0.9,0.8-1.7,0.4-2c-0.4-0.3-0.7,0-1.3,0.6c-0.5,0.5-1,1-1.4,1.5c-1.7,1.8-3.1,1.4-3.9,0.9
	c-1.4-1-1.5-2.9-0.1-4.9c1.2-1.7,2.4-2.7,4.4-2l-0.7,2.1c-0.8-0.3-1.4,0-2.1,1c-0.6,0.9-0.7,1.6-0.3,1.9c0.4,0.3,1.1-0.4,1.4-0.8
	C31.9,49.2,32.4,48.7,32.8,48.3L32.8,48.3z M37.9,47.5l1.2-1.5l1.5,1.2l-1.2,1.5L37.9,47.5z M42.8,40l2-1.1c0.9,1.6,0.6,3.6-0.9,5.1
	c-1.6,1.7-4.5,2.3-6.7,0.1s-1.6-5.1,0-6.7c1.5-1.5,3.5-1.8,5.1-0.9l-1.1,2c-0.9-0.4-1.9-0.3-2.7,0.4c-1.1,1.2-0.9,2.5,0.3,3.6
	c1.1,1.1,2.5,1.4,3.6,0.2C43.1,41.9,43.2,40.9,42.8,40L42.8,40z M51.7,31.4c1.6,2.1,1.2,5-0.9,6.6c-2.2,1.7-5,1.2-6.6-1
	c-1.6-2.1-1.3-4.9,0.9-6.6C47.2,28.8,50.1,29.2,51.7,31.4z M49.9,32.7c-0.9-1.3-2.4-1.6-3.6-0.7C45,33,45,34.4,46,35.6
	c1,1.3,2.3,1.7,3.6,0.7C50.8,35.5,50.8,34,49.9,32.7L49.9,32.7z M60.4,21.5l4.2,8.1l-2,1l-3.2-6.2h-0.1l1.5,7.1l-2.2,1.1l-4.9-5.4
	h-0.1l3.2,6.2l-2,1l-4.2-8.1l3.2-1.6l4.8,5.3h0.1l-1.5-7L60.4,21.5L60.4,21.5z M67,24.3l12.5-3l0.2,0.9l-12.5,3L67,24.3z"/>
</svg>
