<?xml version="1.0" encoding="UTF-8"?>
<svg id="Livello_1" data-name="Livello 1" xmlns="http://www.w3.org/2000/svg" viewBox="0 0 480 521">
  <defs>
    <style>
      .cls-1 {
        fill: #1c1d1e;
        stroke-width: 0px;
      }
    </style>
  </defs>
  <path class="cls-1" d="m212.38,194.64c-92.42,0-172.85,60-172.85,161.71s76.2,160.98,167.21,162.44c82.55.73,177.79-43.17,199.66-132.44,1.41-7.32,2.12-15.37,2.82-22.68-33.16,2.93-69.14-17.56-75.49-58.54-28.22,14.63-61.38,27.81-93.13,27.81-28.22,0-53.62-11.71-51.5-50.49.71-54.88,72.67-72.44,115.71-66.59,34.57,4.39,61.38,20.49,79.72,44.63,14.11-3.66,27.52-5.85,40.22-5.85,8.47,0,15.52.73,22.58,2.93,20.46,6.59,23.28,31.46,20.46,50.49-5.64,34.39-29.63,52.68-55.74,55.61-.71,7.32-2.12,15.37-3.53,23.42-21.87,90-118.53,134.64-201.78,133.9v-.73c-27.52,0-55.03-4.39-80.43-14.63-59.26-24.15-115-79.76-115-149.27,0-92.2,91.72-153.66,172.15-162.44-47.98-2.2-105.12-6.59-136.17-41.71-11.99-14.63-15.52-35.12-14.11-53.42,2.12-41.71,37.39-64.39,74.79-64.39,17.64,0,35.98,4.39,52.91,11.71C173.57,6.59,226.49-4.38,262.47,1.47c38.1,5.12,78.31,31.46,91.01,70.98,10.58,32.2-16.23,68.78-50.09,63.66-16.93-2.93-30.34-14.63-43.04-25.61-8.47-7.32-18.34-13.17-28.22-18.29-38.1-20.49-83.25-29.27-124.88-28.54-22.58,2.2-49.39,3.66-63.5,24.15-15.52,22.68-5.64,56.34,14.82,72.44,43.04,32.93,102.3,31.46,153.8,32.2v2.2Zm-9.88-126.59c26.1,15.37,48.68,38.05,76.2,51.22,22.58,8.78,45.15-10.98,50.8-33.66,5.64-21.95,1.41-49.02-18.34-62.93-16.23-13.17-43.04-20.49-69.14-20.49-35.28,0-69.85,13.17-79.72,44.63,14.11,5.85,27.52,13.17,40.22,21.22Zm102.3,150c-47.27-8.05-131.23,18.29-110.06,82.68,4.23,12.44,13.41,16.1,23.99,16.1,11.29,0,23.99-4.39,33.87-8.78,14.11-5.12,27.51-11.71,40.92-16.83,23.99-8.78,57.15-22.68,88.9-30.73-17.64-22.68-43.74-38.78-77.61-42.44Zm105.12,144.15c2.12-30.73-3.53-61.46-17.64-86.34-19.05,8.78-37.39,19.02-56.44,28.54,4.94,38.78,40.22,61.46,74.08,57.81Zm41.63-21.22c13.41-16.1,17.64-40.25,11.99-60.73-3.53-13.17-14.82-17.56-26.1-17.56-6.35,0-11.99,1.46-17.64,2.93-8.47,2.2-16.93,5.85-25.4,9.51,14.11,24.88,19.75,55.61,17.64,87.07,14.11-2.2,28.22-8.78,39.51-21.22Z"/>
</svg>